<?xml version="1.0" standalone="no"?>
<!DOCTYPE svg PUBLIC "-//W3C//DTD SVG 1.1//EN" "http://www.w3.org/Graphics/SVG/1.1/DTD/svg11.dtd" >
<svg>
<metadata>
Created by FontForge 20090914 at Tue Jul  9 21:47:51 2013
 By www-data
Typeface &#194;&#169; (your company). 2013. All Rights Reserved
</metadata>
<defs>
<font id="SocialIconbyBRIANQC" horiz-adv-x="1014" >
  <font-face 
    font-family="Social Icon by BRIANQC"
    font-weight="400"
    font-stretch="normal"
    units-per-em="2048"
    panose-1="2 0 5 0 0 0 0 0 0 0"
    ascent="1638"
    descent="-410"
    x-height="1412"
    cap-height="1430"
    bbox="34 -0.00488281 3339 1843"
    underline-thickness="150"
    underline-position="-142"
    unicode-range="U+0020-U+F002"
  />
<missing-glyph horiz-adv-x="1071" 
d="M123 0v1434h824v-1434h-824zM173 50h724v1334h-724v-1334zM348 1148c20.667 18.667 40.002 32.998 58.002 42.998c35.333 20 72.666 30 111.999 30c61.333 0 110.666 -15.833 147.999 -47.5s56 -74.167 56 -127.5c0 -32.667 -7.66699 -65.5 -23 -98.5
s-44.333 -76.167 -87 -129.5c-42 -53.333 -75 -97.333 -99 -132s-36 -67.667 -36 -99c0 -25.333 8 -69.666 24 -132.999h-32c-23.333 64.667 -35 114 -35 148c0 50.667 27.167 123.334 81.5 218.001s81.5 167 81.5 217c0 38 -11 68 -33 90s-52.333 33 -91 33
c-25.333 0 -48.333 -5.66699 -69 -17c-17.333 -10 -36 -23.333 -56 -40v45zM412.002 333.998l57 57.999c7.33301 6.66699 14 10 20 10c6.66699 0 14 -3.66699 22 -11l56 -60c6 -7.33301 9 -14 9 -20c0 -7.33301 -3.33301 -14.666 -10 -21.999l-56 -62
c-9.33301 -9.33301 -16.333 -14 -21 -14c-7.33301 0 -14 3.33301 -20 10l-61 71c-4.66699 6 -7 12 -7 18c0 6.66699 3.66699 14 11 22z" />
    <glyph glyph-name=".notdef" horiz-adv-x="1071" 
d="M123 0v1434h824v-1434h-824zM173 50h724v1334h-724v-1334zM348 1148c20.667 18.667 40.002 32.998 58.002 42.998c35.333 20 72.666 30 111.999 30c61.333 0 110.666 -15.833 147.999 -47.5s56 -74.167 56 -127.5c0 -32.667 -7.66699 -65.5 -23 -98.5
s-44.333 -76.167 -87 -129.5c-42 -53.333 -75 -97.333 -99 -132s-36 -67.667 -36 -99c0 -25.333 8 -69.666 24 -132.999h-32c-23.333 64.667 -35 114 -35 148c0 50.667 27.167 123.334 81.5 218.001s81.5 167 81.5 217c0 38 -11 68 -33 90s-52.333 33 -91 33
c-25.333 0 -48.333 -5.66699 -69 -17c-17.333 -10 -36 -23.333 -56 -40v45zM412.002 333.998l57 57.999c7.33301 6.66699 14 10 20 10c6.66699 0 14 -3.66699 22 -11l56 -60c6 -7.33301 9 -14 9 -20c0 -7.33301 -3.33301 -14.666 -10 -21.999l-56 -62
c-9.33301 -9.33301 -16.333 -14 -21 -14c-7.33301 0 -14 3.33301 -20 10l-61 71c-4.66699 6 -7 12 -7 18c0 6.66699 3.66699 14 11 22z" />
    <glyph glyph-name="space" unicode=" " horiz-adv-x="508" 
 />
    <glyph glyph-name="space" unicode="&#xa0;" horiz-adv-x="508" 
 />
    <glyph glyph-name="exclam" unicode="!" horiz-adv-x="672" 
 />
    <glyph glyph-name="quotedbl" unicode="&#x22;" horiz-adv-x="672" 
 />
    <glyph glyph-name="numbersign" unicode="#" horiz-adv-x="1336" 
 />
    <glyph glyph-name="dollar" unicode="$" 
 />
    <glyph glyph-name="percent" unicode="%" horiz-adv-x="1610" 
 />
    <glyph glyph-name="ampersand" unicode="&#x26;" horiz-adv-x="1683" 
 />
    <glyph glyph-name="quotesingle" unicode="'" horiz-adv-x="346" 
 />
    <glyph glyph-name="parenleft" unicode="(" horiz-adv-x="758" 
 />
    <glyph glyph-name="parenright" unicode=")" horiz-adv-x="758" 
 />
    <glyph glyph-name="asterisk" unicode="*" horiz-adv-x="1024" 
 />
    <glyph glyph-name="plus" unicode="+" 
 />
    <glyph glyph-name="comma" unicode="," horiz-adv-x="557" 
 />
    <glyph glyph-name="hyphen" unicode="-" horiz-adv-x="670" 
 />
    <glyph glyph-name="hyphen" unicode="&#xad;" horiz-adv-x="670" 
 />
    <glyph glyph-name="period" unicode="." horiz-adv-x="557" 
 />
    <glyph glyph-name="slash" unicode="/" horiz-adv-x="569" 
 />
    <glyph glyph-name="zero" unicode="0" 
 />
    <glyph glyph-name="one" unicode="1" horiz-adv-x="1964" 
 />
    <glyph glyph-name="two" unicode="2" horiz-adv-x="2281" 
 />
    <glyph glyph-name="three" unicode="3" 
 />
    <glyph glyph-name="four" unicode="4" 
 />
    <glyph glyph-name="five" unicode="5" 
 />
    <glyph glyph-name="six" unicode="6" 
 />
    <glyph glyph-name="seven" unicode="7" 
 />
    <glyph glyph-name="eight" unicode="8" 
 />
    <glyph glyph-name="nine" unicode="9" 
 />
    <glyph glyph-name="colon" unicode=":" horiz-adv-x="557" 
 />
    <glyph glyph-name="semicolon" unicode=";" horiz-adv-x="557" 
 />
    <glyph glyph-name="semicolon" unicode="&#x37e;" horiz-adv-x="557" 
 />
    <glyph glyph-name="less" unicode="&#x3c;" 
 />
    <glyph glyph-name="equal" unicode="=" 
 />
    <glyph glyph-name="greater" unicode="&#x3e;" 
 />
    <glyph glyph-name="question" unicode="?" horiz-adv-x="748" 
 />
    <glyph glyph-name="at" unicode="@" horiz-adv-x="2019" 
 />
    <glyph glyph-name="A" unicode="A" horiz-adv-x="1473" 
d="M128 1408l132.001 -155.999c153.333 -158.667 260 -250.667 320 -276c77.333 -45.333 129.333 -68 156 -68c168.667 39.333 370 204.666 604 495.999h4l8 -8c-34.667 -84 -66.667 -208 -96 -372l-16 -144v-64l-4 -68l4 -72v-64c18.667 -186.667 54.667 -368 108 -544
c4 -0.666992 9.33301 -16.667 16 -48l-4 -4h-4c-86 100 -158 197.333 -216 292c-79.333 127.333 -134 243.333 -164 348h-4c-56.667 -18 -115.334 -94 -176.001 -228c-24 -60.667 -41.333 -118 -52 -172l-4 -4h-4c-8 0 -18.667 36 -32 108
c-62 164.667 -128.667 263.334 -200 296.001c-8.66699 0 -22 -33.333 -40 -100c-67.333 -162.667 -182 -341.334 -344 -536.001h-4l-8 8c85.333 250.667 128 492 128 724c0 208 -38.667 425.333 -116 652l4 4h4z" />
    <glyph glyph-name="B" unicode="B" horiz-adv-x="2066" 
d="M1492 428h20v-8h-20v8zM1407 1396l2.99707 -2.99902v-2c0 -7.33301 -9.33301 -19 -28 -35v-11h10c44.667 14 77.334 21 98.001 21h2c12 0 18 -6 18 -18c0 -19.333 -39.333 -37.666 -118 -54.999c-26.667 -8.66699 -40 -15.334 -40 -20.001v-5h2
c142.667 0 261.667 -70.333 357 -211c38.667 -74.667 58 -123.334 58 -146.001c4.66699 -26.667 21.334 -40 50.001 -40l30 -2c49.333 0 100.333 9 153 27l2 -7c-19.333 -40.667 -65.333 -72.667 -138 -96c-38 -6.66699 -57 -12.334 -57 -17.001v-5
c23.333 -10 60 -17.667 110 -23h40c35.333 0 53 -2.33301 53 -7c-60.667 -45.333 -114.334 -68 -161.001 -68c0 -3.33301 -13.333 -5 -40 -5l-22 -3c-6 0 -15.333 -26 -28 -78c-79.333 -199.333 -226.666 -355 -441.999 -467
c-88.667 -41.333 -181.334 -73.666 -278.001 -96.999c-58 -10 -120 -17.667 -186 -23h-88c-59.333 -0 -146.333 14.333 -261 43c-196.667 66.667 -349 167.667 -457 303l3 3h2c101.333 -62 191.666 -93 270.999 -93h83c78.667 0 166.667 31 264 93
c22.667 16 44.334 34.333 65.001 55v13c0 4 -21 9 -63 15c-43.333 22.667 -65 47.667 -65 75v3c0 24 21 49 63 75v10c-105.333 0 -180.666 39.333 -225.999 118v7c32 32 68 48 108 48l7 8v5c-68 21.333 -120 49.666 -156 84.999c-33.333 45.333 -50 80.333 -50 105
c0 6 37 13 111 21v5l-66 50c-63.333 59.333 -95 117 -95 173v13l5 5c70 -22 179.667 -65.667 329 -131c124.667 -57.333 211.667 -107.666 261 -150.999c44 -40 70 -60 78 -60l70 166c40.667 88 88.334 165 143.001 231c44.667 44.667 70.667 68 78 70h2l16 -18l87 43z" />
    <glyph glyph-name="C" unicode="C" horiz-adv-x="3419" 
d="M2105 1360c241.333 0 438.666 -112.002 592 -336.002c56 -113.333 84 -194.666 84 -243.999c8 -21.333 20 -32 36 -32h12c54.667 13.333 100 20 136 20c154.667 0 268 -76 340 -228c21.333 -51.333 32 -104.666 32 -159.999c0 -134 -52 -239.333 -156 -316
c-66 -42.667 -148.667 -64 -248 -64h-1248c-26.667 -0 -40 17.333 -40 52l4 68v1044c0 39.333 50.667 82 152 128c88.667 45.333 190 68 304 68zM1193 1116h36c29.333 0 44 -28 44 -84v-952c0 -53.333 -12 -80 -36 -80h-40c-24 0 -36 14.667 -36 44v1032
c0 26.667 10.667 40 32 40zM1397 1080l88 -32h4l44 8c10.667 -3.33301 16 -15.333 16 -36v-952c0 -45.333 -13.333 -68 -40 -68h-96c-29.333 0 -44 12 -44 36v1016c0 18.667 9.33301 28 28 28zM977 1072c10.667 -11.333 16 -22 16 -32v-996c0 -29.333 -12 -44 -36 -44h-36
c-24 0 -36 18.667 -36 56v932c0 40 30.667 68 92 84zM701 827.998l4 0.000976562l12 -12v-760c0 -37.333 -12 -56 -36 -56h-36c-26.667 0 -40 20 -40 60v528c0 20 12 54.667 36 104c24 85.333 44 130.666 60 135.999zM397 699.999h8c21.333 0 32 -10.667 32 -32v-632
c-3.33301 -24 -15.333 -36 -36 -36h-24c-32 0 -48 21.333 -48 64v568c0 45.333 22.667 68 68 68zM153 571.999c8 -1.33301 12 -12 12 -32v-384c0 -24 -6.66699 -36 -20 -36c-20.667 0 -48.667 56 -84 168l-4 60c0 79.333 26.667 154 80 224h16z" />
    <glyph glyph-name="D" unicode="D" horiz-adv-x="1729" 
d="M142 1013l408.999 -0.000976562c152 0 253.333 -53 304 -159c14.667 -32 22 -65.333 22 -100v-15c0 -72 -33 -135 -99 -189v-2c51.333 -23.333 92 -62.666 122 -117.999c14 -32 21 -64.667 21 -98v-32c0 -98 -47.667 -178 -143 -240
c-61.333 -30 -139.666 -45 -234.999 -45h-405l-15 15l6 972zM1125 917.999h370l4 -4v-79l-4 -4h-370l-4 4v79zM310.999 849.999l-2 -107.001v-127h187c99.333 0 160 17.333 182 52c12.667 24 19 45.333 19 64c0 46.667 -20.667 80.334 -62 101.001
c-28 11.333 -73 17 -135 17h-189zM1296 768.998c149.333 0 255.666 -67.332 318.999 -201.999c18.667 -48.667 28 -108.334 28 -179.001v-28c0 -22 -6.33301 -33 -19 -33h-512c7.33301 -44.667 20.333 -80.334 39 -107.001c38.667 -48 88.334 -72 149.001 -72
c72.667 0 124.334 37 155.001 111c6 16 12.333 25.333 19 28h9c27.333 0 75 -5.66699 143 -17l11 -15v-17c-8.66699 -45.333 -34.667 -92.666 -78 -141.999c-64.667 -64 -145.667 -96 -243 -96h-41c-142.667 0 -247 65 -313 195c-20 56 -30 110 -30 162v31
c0 172 73 291.667 219 359c43.333 14.667 91.666 22 144.999 22zM1121 476.999h337.998c-8 42 -21.667 73 -41 93c-39.333 34 -80.666 51 -123.999 51c-39.333 0 -78.666 -15 -117.999 -45c-34 -37.333 -52.333 -70.333 -55 -99zM306.997 451.999v-1.99902l-2 -272h236
c90 0 148.333 22.667 175 68c12.667 25.333 19 49.666 19 72.999c0 45.333 -21.333 81 -64 107c-32.667 17.333 -86 26 -160 26h-204z" />
    <glyph glyph-name="E" unicode="E" horiz-adv-x="1463" 
d="M733 1500l647.001 -373l4 -6v-725l-4 -5v-17c-14.667 -12.667 -107 -66.667 -277 -162l-354 -203c-6.66699 -6 -13 -9 -19 -9l-325 184l-322 188v19l-4 5v725c5.33301 8 49.666 34.667 132.999 80c316 184 489.333 283.667 520 299h1zM229.001 1100l-0.00195312 -4
c256.667 -145.333 424.334 -242.666 503.001 -291.999c78 49.333 245.333 146.666 502 291.999v4l-457 262l-38 19l-7 -2l-10 2c-27.333 -13.333 -189.666 -106.333 -486.999 -279zM175.999 1015v-586l508 -292v586zM778.999 723v-586l508 292v586z" />
    <glyph glyph-name="F" unicode="F" horiz-adv-x="2059" 
d="M507 851h47.001c78 0 158.667 -30.333 242 -91c64 -56 107.333 -114 130 -174c20 -55.333 30 -101 30 -137v-47c0 -94.667 -41.667 -188.334 -125 -281.001c-92 -80.667 -184.333 -121 -277 -121h-47c-94.667 0 -188.334 41.667 -281.001 125
c-80.667 92 -121 184.333 -121 277v47c0 94.667 41.667 188.334 125 281.001c92 80.667 184.333 121 277 121zM1504 851l47.001 -0.000976562c78 0 158.667 -30.333 242 -91c59.333 -52 97.333 -99.333 114 -142c30.667 -61.333 46 -117.666 46 -168.999v-47
c0 -94.667 -41.667 -188.334 -125 -281.001c-92 -80.667 -184.333 -121 -277 -121h-47c-94.667 0 -188.334 41.667 -281.001 125c-80.667 92 -121 184.333 -121 277v47c0 94.667 41.667 188.334 125 281.001c92.667 80.667 185 121 277 121z" />
    <glyph glyph-name="G" unicode="G" horiz-adv-x="1599" 
d="M523 1250l367.999 -0.00390625l3 -3l-80 -59h-115v-1c79.333 -46 119 -121.333 119 -226c0 -82.667 -50 -160 -150 -232c-24 -24 -36 -49.333 -36 -76c0 -35.333 47.333 -87 142 -155c40 -37.333 65.667 -71.333 77 -102l16 -59l2 -65
c0 -98.667 -59 -177.334 -177 -236.001c-37.333 -14 -71.333 -23.667 -102 -29l-2 -2h-9l-46 -5h-96c-89.333 9.33301 -157.333 25 -204 47c-36 16.667 -68.333 40 -97 70c-24 30.667 -36 54.334 -36 71.001c-2 0 -3.33301 4 -4 12v46
c2.66699 42.667 25.667 88.334 69 137.001c56 50.667 108.333 82.334 157 95.001c40.667 16.667 113 25 217 25v6c-32.667 34.667 -49 67.334 -49 98.001v13c0 12.667 5.33301 33.667 16 63h-2l-5 2l-20 -2c-135.333 0 -229.666 59 -282.999 177c-12 36 -18 65.333 -18 88
v34c0 52.667 28.667 109.334 86 170.001c74.667 65.333 161 98 259 98zM1270 1250h49.001l5 -5v-243l4 -3h244l4 -4v-53l-4 -3h-233c-8.66699 0 -13.667 -2 -15 -6v-42l-1 -204l-2 -2h-51l-2 2h-2l-2 110v136c-0.666992 4 -4.33398 6 -11.001 6h-237l-3 3v51l5 6h243l3 3
v243zM311 1006c0 -96 39.666 -178.667 118.999 -248c35.333 -24 70.333 -36 105 -36c50 0 90.667 28 122 84c17.333 37.333 26 74.333 26 111c0 32 -8.66699 72.667 -26 122c-33.333 74 -78.666 122.667 -135.999 146c-22 8 -42 12 -60 12
c-66.667 0 -113.667 -40.667 -141 -122c-6 -26 -9 -49 -9 -69zM228.999 263.996c0 -81.333 48.667 -144.332 146 -188.999c37.333 -13.333 76.333 -20 117 -20c133.333 0 220.666 37.667 261.999 113c12 31.333 18 53.666 18 66.999v42c0 52 -45.333 105.333 -136 160
c-25.333 22 -66.666 33 -123.999 33c-96.667 0 -177 -33.333 -241 -100c-28 -34 -42 -69.333 -42 -106z" />
    <glyph glyph-name="H" unicode="H" horiz-adv-x="1750" 
d="M878 1276c40 0 79.666 -14.334 118.999 -43.001l580 -372v-2c-10.667 -10.667 -36.667 -30.667 -78 -60l-81 -63h-4l-4 4v67c-6 31.333 -15.667 54 -29 68c-24.667 26 -54 39 -88 39l-33 -2h-789l-12 2c-44 0 -79 -21.667 -105 -65l-10 -33v-78l-4 -4h-2l-163 123v4
l220 142l337 215c36.667 25.333 66.334 42 89.001 50c0 2.66699 19 5.33398 57 8.00098zM100.999 782.999l366.004 -275.001c175.333 -132.667 278.666 -209 309.999 -229c19.333 -12.667 47.666 -22 84.999 -28h28c41.333 6.66699 71.666 17 90.999 31l600 449l65 48h5
c5.33301 0 8.66602 -16 9.99902 -48l-2 -34v-430l2 -142c0 -25.333 -5.66699 -44.333 -17 -57l-378 281c-5.33301 4.66699 -12.666 7.66699 -21.999 9c-20.667 -3.33301 -31 -13.666 -31 -30.999v-9c0 -9.33301 20.667 -27 62 -53l221 -166l103 -78v-2
c0 -4.66699 -15 -11 -45 -19h-1356l-41 14v4c3.33301 4 87.666 68 252.999 192l119 88c9.33301 8 14 17 14 27c0 14.667 -5.33301 24.667 -16 30l-15 3c-10 0 -32.667 -14.667 -68 -44l-330 -248h-6c-10 14 -15 35.667 -15 65l-2 592l-2 21c4.66699 26 8.66699 39 12 39z
M714.003 772.998h322c6.66699 0 11 -2.33301 13 -7v-2c-2.66699 -6.66699 -9 -10 -19 -10h-312c-10 0 -15.667 2.66699 -17 8v4c2 4.66699 6.33301 7 13 7zM712.003 663.998l330 0.000976562l7 -7v-2c0 -2.66699 -4.33301 -5.33398 -13 -8.00098l-24 2h-305l-6 6v3
c1.33301 4 5 6 11 6zM714.003 556.999h320c6.66699 0 11.667 -3.33301 15 -10v-2l-11 -7l-39 2h-248l-41 -2c-5.33301 2 -8.33301 4.33301 -9 7v4c2 5.33301 6.33301 8 13 8z" />
    <glyph glyph-name="I" unicode="I" horiz-adv-x="1583" 
d="M789 1430h8c178 0 339.333 -65.333 484 -196c144 -145.333 216 -308 216 -488v-56c0 -210 -100 -391.333 -300 -544c-128 -85.333 -261.333 -128 -400 -128h-20c-204.667 0 -386 90.667 -544 272c-98.667 130 -148 267.333 -148 412v60c0 147.333 62.667 295.333 188 444
c151.333 149.333 323.333 224 516 224zM637 1302v-4.00098c0 -9.33301 26.667 -46.666 80 -111.999c39.333 -55.333 91.333 -139.333 156 -252h4c91.333 32 202 102.667 332 212v8c-120 114.667 -249.333 172 -388 172h-44c-82 -2.66699 -128.667 -10.667 -140 -24z
M197 829.999c0 -16 10.666 -24 31.999 -24h76c148.667 0 302 28 460 84v20c-59.333 107.333 -135.333 218 -228 332c-5.33301 10.667 -13.333 16 -24 16c-131.333 -65.333 -228.666 -176 -291.999 -332zM920.999 825.999c23.333 -59.333 39.333 -91.334 48 -96.001l168 16
h52c38.667 0 104 -8 196 -24l12 16c0 100.667 -34.667 207.334 -104 320.001l-12 4c-152 -116 -270.667 -190.667 -356 -224zM312.999 701.998l-111.999 -0.000976562c-6.66699 0 -10.667 -5.33301 -12 -16c0 -122 52 -243.333 156 -364l16 -4
c23.333 47.333 88.666 119.333 195.999 216c92 70.667 178.667 121.334 260 152.001c26.667 4.66699 40 12.667 40 24c-21.333 56 -36 84 -44 84h-4c-170.667 -61.333 -336 -92 -496 -92zM1001 613.997c53.333 -177.333 80 -303.999 80 -379.999l4 -20l4 -4h20
c120.667 74.667 206 184 256 328l16 60v4c-8.66699 21.333 -82 34.666 -220 39.999c-106.667 0 -160 -9.33301 -160 -28zM441 249.998v-12c102 -77.333 218 -116 348 -116c130.667 7.33301 196 23.333 196 48v4c-13.333 135.333 -33.333 243.333 -60 324
c-14 66.667 -27.333 100 -40 100c-193.333 -72 -341.333 -188 -444 -348z" />
    <glyph glyph-name="J" unicode="J" horiz-adv-x="1616" 
d="M620 1395l5.99902 0.000976562c41.333 -6.66699 62 -27.334 62 -62.001v-6c0 -20 -7.66699 -35.333 -23 -46v-4c56.667 -96.667 98.667 -172.667 126 -228l13 -12l2 2h2l5 -2c9.33301 9.33301 33 52 71 128l66 112v4c-15.333 10.667 -23 26 -23 46v6
c6.66699 41.333 27.334 62 62.001 62h6c41.333 -6.66699 62 -27.334 62 -62.001v-6c-6.66699 -41.333 -27.334 -62 -62.001 -62h-4l-87 -237l30 -39h444c30 0 66.667 -18 110 -54c27.333 -30.667 41 -63.667 41 -99v-688c0 -30 -16.667 -66.333 -50 -109
c-26.667 -26 -57 -39 -91 -39h-1161c-64 0 -109.667 41.667 -137 125l-4 23v688c0 72.667 45.667 123 137 151l14 2h444c20 23.333 30 37 30 41l-87 235h-4c-41.333 6.66699 -62 27.334 -62 62.001v6c6.66699 41.333 27.334 62 62.001 62zM650.999 755.001v-502h2l432 249v4
z" />
    <glyph glyph-name="K" unicode="K" horiz-adv-x="1635" 
d="M475 1456h42.002c50 0 109.667 -16.333 179 -49c44 6.66699 85.667 10 125 10c189.333 0 357.333 -74 504 -222c84.667 -98.667 138.667 -200 162 -304c12 -54 18 -99.667 18 -137v-44c0 -38 -3.66699 -72.667 -11 -104c34 -61.333 51 -125 51 -191v-17
c0 -98.667 -37 -189 -111 -271c-84.667 -84.667 -183.334 -127 -296.001 -127c-65.333 0 -131 17 -197 51h-2c-48.667 -7.33301 -89.667 -11 -123 -11c-198 0 -370 78.333 -516 235c-114 132.667 -171 285 -171 457c0 36 3.66699 76.667 11 122c-34 60.667 -51 127 -51 199
c0 124.667 52.333 230.667 157 318c77.333 56.667 153.666 85 228.999 85zM471.002 908c0 -108 58.666 -180.001 175.999 -216.001l273 -71c37.333 -17.333 56 -43.666 56 -78.999c0 -52 -37 -87 -111 -105l-40 -4h-14c-73.333 0 -129.666 28.333 -168.999 85
c-28 42 -58.667 63 -92 63h-3c-52.667 -6 -79 -31.667 -79 -77c0 -58.667 39.667 -112.334 119 -161.001c70.667 -32.667 148.334 -49 233.001 -49c171.333 2.66699 280.333 57.334 327 164.001c12.667 29.333 19 63.333 19 102c0 116 -66 193 -198 231
c-160 32 -252.333 56 -277 72c-23.333 16 -35 35.333 -35 58v2c0 40.667 24.667 70 74 88c23.333 5.33301 45.666 8 66.999 8c80 0 139.667 -29.333 179 -88c24 -24.667 47 -37 69 -37c38.667 0 65.667 16 81 48c2.66699 2.66699 5 12 7 28c0 64.667 -52.333 118 -157 160
c-58.667 22.667 -115 34 -169 34c-116.667 0 -208 -31.333 -274 -94c-41.333 -42 -62 -96 -62 -162z" />
    <glyph glyph-name="L" unicode="L" horiz-adv-x="2084" 
d="M346 1836h1392c96 0 167 -52.333 213 -157c6 -26.667 9 -48.334 9 -65.001v-1392c0 -96 -52.333 -167 -157 -213c-26.667 -6 -48.334 -9 -65.001 -9h-1392c-96 0 -167 52.333 -213 157c-6 26.667 -9 48.334 -9 65.001v1392c0 96 52.333 167 157 213
c26.667 6 48.334 9 65.001 9zM780 1482c-207.333 -63.333 -310.999 -170 -310.999 -320v-495c36 -122 101 -217.333 195 -286c39.333 -21.333 81.666 -32 126.999 -32h479c44.667 3.33301 101.334 24 170.001 62c94 56 141 140 141 252v313c0 48 -23.333 72 -70 72h-55
c-45.333 16.667 -68 62.334 -68 137.001c0 47.333 -29.333 110.666 -88 189.999c-68.667 72.667 -142.334 109 -221.001 109zM850.001 1182h166c46.667 0 70 -20.333 70 -61c0 -39.333 -23.333 -59 -70 -59h-166c-46.667 0 -70 20.333 -70 61c0 39.333 23.333 59 70 59z
M818.001 772l448 0.000976562c28.667 -4.66699 43 -19.334 43 -44.001v-18c-4.66699 -28.667 -19 -43 -43 -43h-448c-28.667 4.66699 -43 19 -43 43v18c4.66699 29.333 19 44 43 44z" />
    <glyph glyph-name="M" unicode="M" horiz-adv-x="1680" 
d="M769 1810l1.99902 -0.000976562c78 -72 129.333 -136 154 -192c34.667 -68 61 -154 79 -258c7.33301 -57.333 14.666 -89.333 21.999 -96c46 -133.333 69 -256.333 69 -369v-18c0 -270 -129.667 -510 -389 -720v-5l2 2h14c62.667 0 138.667 24 228 72
c144.667 108 217 250.333 217 427c0 54.667 -12 120.334 -36 197.001c32.667 15.333 83.334 34 152.001 56c28.667 -69.333 43 -145.333 43 -228v-49c0 -202 -91.667 -376 -275 -522c-104.667 -71.333 -214.334 -107 -329.001 -107h-63c-220 -0 -400.333 122.333 -541 367
c-42 92 -63 180 -63 264v45c0 205.333 100.667 385.666 302 540.999c98.667 61.333 207.667 92 327 92h18c78.667 0 148.667 -12.667 210 -38v-2c-18 -39.333 -33 -88.666 -45 -147.999l-2 -2h-2c-56.667 19.333 -112 29 -166 29h-27c-149.333 0 -276.666 -79 -381.999 -237
c-44.667 -82.667 -67 -171.667 -67 -267c0 -175.333 75.333 -317 226 -425c76 -37.333 128 -56 156 -56l2 -2c48 16 107.667 57.667 179 125c80.667 95.333 138.334 211 173.001 347c41.333 160.667 62 307 62 439v20c0 124.667 -7.33301 200 -22 226
c-54 167.333 -130 330 -228 488v4zM1516 1772c64 -104 96 -210.666 96 -319.999v-11c0 -141.333 -54.333 -264.333 -163 -369c-41.333 -28.667 -90.666 -43 -147.999 -43c-65.333 0 -126.333 31.333 -183 94v2c29.333 16 64.333 38.333 105 67
c159.333 110 248.666 206.333 267.999 289v2h-2c0 -28.667 -54.333 -95.667 -163 -201c-86 -56 -151 -87.333 -195 -94c0 -2.66699 -18.667 -7 -56 -13c-28 44 -42 88.667 -42 134v18c0 130 97 217.333 291 262c56 23.333 100 53.666 132 90.999c27.333 32 45 62 53 90l3 2
h4z" />
    <glyph glyph-name="N" unicode="N" horiz-adv-x="1929" 
d="M935 1766h61.001c151.333 0 305 -49.333 461 -148l3 -2v-841c0 -55.333 -25.667 -92.333 -77 -111l-32 -4h-2c-49.333 0 -83.666 29.667 -102.999 89v227c0 128.667 -19.667 212.667 -59 252c-47.333 50.667 -100.333 76 -159 76h-468
c-115.333 0 -199.333 -53.667 -252 -161c-12 -27.333 -18 -57.666 -18 -90.999v-9c0 -104.667 51.667 -175.667 155 -213c35.333 -10.667 95.666 -21.667 180.999 -33c22 -9.33301 36.333 -21 43 -35c4 -20 7 -30 9 -30c0 -32 -17.333 -53 -52 -63
c-7.33301 -6 -44.333 -9 -111 -9h-403c-12 0 -23 65.333 -33 196v30c0 215.333 72.667 408.333 218 579c88 91.333 145.333 141.666 172 150.999c151.333 100 306.666 150 465.999 150zM1660 1422h2c122 -161.333 183 -329.666 183 -504.999v-66
c0 -220.667 -92.333 -425.334 -277 -614.001c-96.667 -83.333 -175.667 -136.333 -237 -159c-116.667 -52 -230 -78 -340 -78h-76c-140 0 -291.667 51.667 -455 155c-136.667 100.667 -231 209.334 -283 326.001l2 2h373c156 0 257.333 54.667 304 164
c10.667 35.333 16 62 16 80v26c0 90.667 -39.333 157 -118 199c-41.333 18 -117.666 36.667 -228.999 56c-26 10 -39 27.333 -39 52c0 50 37 75 111 75h307c69.333 0 113.666 -18.333 132.999 -55c6 -10.667 9 -22.334 9 -35.001v-246c0 -139.333 50.667 -233 152 -281
c44 -23.333 93.333 -35 148 -35h11c128 0 220.333 54.667 277 164c17.333 32 26 90.667 26 176v599z" />
    <glyph glyph-name="O" unicode="O" horiz-adv-x="1688" 
d="M420 1448h852c102 0 190 -58.667 264 -176c21.333 -48 32 -98.667 32 -152v-808c0 -109.333 -50.667 -198.666 -152 -267.999c-53.333 -29.333 -96 -44 -128 -44h-884c-76 0 -152 45.333 -228 136c-37.333 62 -56 118 -56 168v836c0 103.333 54.667 192.666 164 267.999
c44.667 26.667 90 40 136 40zM912 924l95.998 -31.999c16 -14.667 24 -37.334 24 -68.001v-4c0 -65.333 -36 -144 -108 -236l-24 -8h-24c-54.667 0 -93.334 125.333 -116.001 376c-27.333 112 -66 168 -116 168h-28c-61.333 0 -158.666 -64 -291.999 -192l-20 -24v-12
c0 -24 14.667 -36 44 -36l112 4c27.333 -18 62 -110 104 -276c46.667 -229.333 109.334 -344 188.001 -344h28c134.667 0 293.334 160 476.001 480c64 140 96 240 96 300v32c0 40 -25.333 70.667 -76 92l-56 8h-24c-112.667 0 -206 -68 -280 -204z" />
    <glyph glyph-name="P" unicode="P" horiz-adv-x="1829" 
d="M690 1829h14.002c70 0 124.333 -49.667 163 -149c13.333 -34 20 -63.333 20 -88v-67c0 -62 -22.333 -124.333 -67 -187c-38.667 -42 -81.334 -63 -128.001 -63h-12c-74.667 0 -132 65.667 -172 197l-10 84c0 92 29.667 169.333 89 232
c29.333 27.333 63.666 41 102.999 41zM1234 1786h3.00098c54 0 108.333 -41.667 163 -125c18.667 -40 28 -76.667 28 -110v-22c0 -79.333 -39 -158.333 -117 -237c-40.667 -25.333 -76.667 -38 -108 -38h-14c-83.333 0 -140.333 44 -171 132c-8 41.333 -12 70 -12 86v21
c0 64 22.667 127.333 68 190c53.333 68.667 106.666 103 159.999 103zM266.003 1407h9c84.667 0 152 -57.333 202 -172c8 -25.333 12 -62.333 12 -111c0 -128.667 -47.333 -211 -142 -247l-76 -9c-85.333 0 -147 54.333 -185 163c-8 27.333 -12 50.333 -12 69v60
c0 45.333 22.333 107 67 185c38 41.333 79.667 62 125 62zM1519 1273l27.001 -0.000976562c91.333 0 156 -52.667 194 -158c8 -30 12 -55.667 12 -77v-72c0 -56 -16.667 -108.667 -50 -158c-36 -40 -87.333 -60 -154 -60c-85.333 0 -145.333 28.667 -180 86
c-18.667 38 -28 78.667 -28 122v96c0 48.667 14.333 98.334 43 149.001c35.333 48 80.666 72 135.999 72zM903.004 1083c110.667 0 208.337 -69.999 293.004 -209.999c36.667 -50 111.667 -128.333 225 -235c113.333 -94 170 -151.667 170 -173
c22.667 -36.667 34 -87.667 34 -153c0 -84 -26.333 -160 -79 -228c-58 -49.333 -110 -74 -156 -74c-16.667 -6.66699 -32.667 -10 -48 -10h-72c-62.667 8 -155.334 26.333 -278.001 55l-86 5c-34.667 0 -135.334 -12.667 -302.001 -38h-137
c-90.667 0 -163.334 36.667 -218.001 110c-41.333 67.333 -62 137.666 -62 210.999c0 115.333 70.333 223 211 323c122 107.333 197 183.333 225 228c75.333 126 168.666 189 279.999 189zM724.007 642c0 -8 -2.66699 -12.667 -8 -14h-107
c-59.333 0 -108.333 -22.333 -147 -67c-46 -46 -69 -98.667 -69 -158v-7c0 -122.667 60.667 -201 182 -235l34 -5h215c19.333 0 29 5.66699 29 17v596l-5 29h-108c-10.667 0 -16 -10.333 -16 -31v-125zM908.007 278c0 -47.333 36.666 -85 109.999 -113
c16.667 -2.66699 42.334 -4 77.001 -4h170c48 0 72 4 72 12l3 24v383c0 22.667 -5 34 -15 34l-33 2h-48c-28.667 0 -43 -3.33301 -43 -10l-3 -12v-292c0 -14.667 -5.66699 -22 -17 -22h-74c-44.667 0 -67 14.667 -67 44v215l-2 72l-29 5h-67c-22.667 0 -34 -4.66699 -34 -14
v-324zM645.006 518h61.999c8.66699 0 14.334 -3.33301 17.001 -10v-206c0 -20.667 -6.66699 -31 -20 -31h-76c-40.667 0 -70.334 23 -89.001 69l-10 36v27c0 46.667 25 82.667 75 108c14.667 4.66699 28.334 7 41.001 7z" />
    <glyph glyph-name="Q" unicode="Q" horiz-adv-x="1929" 
d="M936 1843l69 0.00195312c105.333 0 226.333 -32.333 363 -97c0 -2.66699 6 -6.66699 18 -12c3.33301 -6.66699 5 -16.334 5 -29.001v-2l11 -469l3 -2v-2l-3 -3l3 -15v-30l-5 -5h-2l-703 619c0 11.333 61.667 25.666 185 42.999zM555 1737l2 0.000976562l334 -300v-7
l-787 -691c-10 11.333 -16.667 69.666 -20 174.999v23c0 241.333 89.333 458 268 650c93.333 86 161 136 203 150zM1527 1632l3 -0.000976562c82.667 -77.333 134 -135.666 154 -174.999c40 -56.667 70.333 -112 91 -166c48.667 -120 73 -230.667 73 -332v-77
c0 -66.667 -14.333 -150 -43 -250l-3 -2h-268c-2.66699 0 -4 2 -4 6l-7 980l-2 7zM452 884.002h5l4 -4l-2 -3l2 -2v-2l7 -705l-2 -2h-2c-118 88 -206.667 188.667 -266 302c-36.667 74 -55 117.333 -55 130zM1752 516.002c3.33301 0 5 -2.33203 5 -6.99902
c-22.667 -50.667 -60.667 -111.334 -114 -182.001c-188 -218 -413 -327 -675 -327c-120.667 0 -235.667 24.333 -345 73l-3 2v2l3 353l2 84l2 2h1125z" />
    <glyph glyph-name="R" unicode="R" horiz-adv-x="1988" 
d="M466 1793h18.999c479.333 0 845.333 -110 1098 -330c208.667 -197.333 313 -559.333 313 -1086c0 -141.333 -7 -267 -21 -377h-5l-278 5l3 134c0 462.667 -73 802 -219 1018c-63.333 74 -120.666 123.333 -171.999 148c-57.333 34.667 -131.333 67 -222 97
c-241.333 69.333 -488 104 -740 104h-103l-5 4v31l2 2l-2 3l2 63v92l3 71c85.333 14 194.333 21 327 21zM368.999 1213c348 0 605 -84 771 -252c120.667 -140.667 181 -373 181 -697c-3.33301 -168 -9.66602 -252 -18.999 -252h-336l-3 2h-2
c15.333 75.333 23 159.333 23 252h3l-3 3v21l3 2l-3 3v9c0 244 -72 404.333 -216 481c-100 46.667 -204.667 70 -314 70h-87c-62.667 0 -137.334 -7.66699 -224.001 -23l-2 2v361c0 8.66699 76 14.667 228 18zM425.999 629c104 0 189.667 -46.334 257 -139.001
c34.667 -53.333 52 -109 52 -167c0 -116.667 -56 -208 -168 -274c-47.333 -23.333 -94.333 -35 -141 -35c-106 0 -192.333 46.333 -259 139c-34.667 52.667 -52 108.334 -52 167.001c0 102 44 186.333 132 253c55.333 37.333 115 56 179 56z" />
    <glyph glyph-name="S" unicode="S" horiz-adv-x="2247" 
d="M2067 1818l-0.00195312 -4.99902c-50 -14 -117.333 -60.333 -202 -139c-58 -62.667 -98.333 -111.334 -121 -146.001h-931v-10c3.33301 0 57.333 -52 162 -156l8 -6h946c136 12 231.667 24 287 36v-5c-56.667 -18 -119 -56.333 -187 -115l-3 -3v-7h3l-3 -26v-105
c-3.33301 -4.66699 -123.666 -77.334 -360.999 -218.001l-344 -203c-60 -345.333 -91.667 -518 -95 -518l-266 -192l-3 3h-3l129 756c0 24.667 -61.667 47 -185 67h-8v5c99.333 0 211.333 38.333 336 115l326 180v7l-31 -2h-631c-70.667 0 -185 -14.667 -343 -44v5
c68.667 22.667 139.667 66.334 213 131.001c-135.333 160.667 -222.666 261.667 -261.999 303h-123l-67 84c-57.333 58 -118 106.667 -182 146l-92 57h5c88 -29.333 209.333 -44 364 -44h1303c96.667 0 206 13.667 328 41z" />
    <glyph glyph-name="T" unicode="T" horiz-adv-x="1304" 
d="M295 1440c85.333 0 145.332 -50.667 179.999 -152l4 -32v-168l8 -8h580c90 0 155.333 -46.667 196 -140v-84c-44.667 -96 -104.667 -144 -180 -144h-596l-8 -8v-76c0 -119.333 54.667 -200.666 164 -243.999l40 -4h368c103.333 0 170 -42.667 200 -128l12 -16v-88
c-32 -68 -72 -112 -120 -132c-14.667 -10.667 -60 -16 -136 -16h-192c-182 0 -296.667 16 -344 48c-146 67.333 -252.667 183.333 -320 348c-18.667 51.333 -32 124.666 -40 219.999l-4 20v588c11.333 76.667 31.333 128.667 60 156c46.667 40 89.334 60 128.001 60z" />
    <glyph glyph-name="U" unicode="U" horiz-adv-x="2075" 
d="M253 1839h1576c22 0 48.667 -12.333 80 -37c26 -28 39 -54.667 39 -80v-1605c0 -30 -16 -59 -48 -87c-27.333 -20 -54 -30 -80 -30h-1565c-32.667 -0 -64.667 14.333 -96 43c-21.333 26 -32 52 -32 78v1597c0 48.667 29 86.667 87 114zM381 1388l-0.00195312 -5.99902
c2.66699 -27.333 9.33398 -50.333 20.001 -69c18.667 -32 49.334 -54 92.001 -66l21 -5h50c21.333 0 51 13 89 39c26 28 40.667 56.333 44 85v45c-2 20 -13.667 45.333 -35 76c-25.333 23.333 -50.333 37.666 -75 42.999l-28 5h-39c-30 -2.66699 -58.667 -14 -86 -34
c-35.333 -32 -53 -69.667 -53 -113zM1111 1034v90.998c-2 4.66699 -6.66699 7 -14 7h-256c-6 0 -10.667 -2.33301 -14 -7l2 -68v-330l-2 -427l7 -5h270l7 7v464c0 54.667 15 95.334 45 122.001c28 27.333 60 41 96 41h10c62 0 102.333 -33 121 -99
c7.33301 -19.333 11 -55 11 -107v-407l-2 -9c2 -8 7.33301 -12 16 -12h261l7 7v476c0 182.667 -65.667 300.667 -197 354c-26 10.667 -67.333 18.334 -124 23.001c-63.333 -5.33301 -108.333 -15.333 -135 -30c-38 -18.667 -72.333 -49 -103 -91h-6zM396.998 1123v-814
c0 -9.33301 4.66699 -14 14 -14h263c4.66699 1.33301 7 6 7 14v805c0 11.333 -2.33301 17.333 -7 18h-268z" />
    <glyph glyph-name="V" unicode="V" horiz-adv-x="1889" 
d="M79 1448h875.998v-4c-43.333 -194.667 -68.666 -292 -75.999 -292h-360c-5.33301 0 -8 -4 -8 -12l228 -652h4c8 0 25.333 48 52 144l272 816h196l528 -8v-12l-156 -316l-4 -4h-356c-5.33301 0 -26.666 -64 -63.999 -192l-176 -568h492c12 0 29.333 -46.667 52 -140
l64 -200l-8 -8h-1064c-8.66699 0 -36.667 78.667 -84 236l-412 1200l-4 4z" />
    <glyph glyph-name="W" unicode="W" horiz-adv-x="1798" 
d="M199 1540h1408c42.667 0 64 -38.667 64 -116v-1316c0 -72 -25.333 -108 -76 -108h-1392c-50.667 -0 -76 29.333 -76 88v1364c4.66699 58.667 28.667 88 72 88zM1007 1092l-0.000976562 -200l-8 -8h-144l-8 -8v-200l8 -8h140c8 -2.66699 12 -10.667 12 -24v-532l-4 -4v-4
l12 -8h216l12 12v552l8 8h180l24 216h-200l-8 8v196c0 16 28 24 84 24h116l8 8v192l-8 8h-196c-117.333 0 -194.666 -50.667 -231.999 -152c-8 -16 -12 -41.333 -12 -76z" />
    <glyph glyph-name="X" unicode="X" horiz-adv-x="2444" 
d="M841 1424l1192 -0.000976562l8 -8c0 -133.333 -33.333 -336 -100 -608c-44 -132.667 -97.333 -222 -160 -268c-68 -92.667 -160 -158 -276 -196c-63.333 -16 -146 -24 -248 -24h-500l-8 8c33.333 132.667 77.333 222 132 268h4l216 -8c156 0 269.333 28 340 84
c47.333 24 108.666 78.667 183.999 164c37.333 45.333 62.666 112 75.999 200c0 19.333 5.33301 47.333 16 84h-4l-756 20c-207.333 0 -343.333 -56 -408 -168c-56 -90 -101.333 -191.333 -136 -304l-20 -64h52l4 -4h4c-41.333 -84.667 -65.333 -176.667 -72 -276l-4 -4
h-276c-5.33301 0 -8 4 -8 12c0 236.667 52 471.334 156 704.001c36.667 69.333 94 140 172 212c159.333 117.333 299.333 176 420 176zM1149 1092l488 -3.99902h16c5.33301 0 8 -4 8 -12c0 -114.667 -40 -202.667 -120 -264l-308 4c-175.333 0 -295.333 -49.333 -360 -148
c-67.333 -62 -118 -172.667 -152 -332l-8 -44h520l740 -4v320l8 8h312l8 -8v-600l-8 -8h-1888l-8 8v20c0 383.333 96 671.333 288 864c97.333 101.333 177.333 161.333 240 180c0 3.33301 16 8.66602 48 15.999zM2329 1088l8 -8v-252l-8 -8h-324l-8 8l64 260h268z" />
    <glyph glyph-name="Y" unicode="Y" horiz-adv-x="1435" 
d="M1012 1412c104.667 0 177.999 -55.999 219.999 -167.999l8 -60c0 -102.667 -57.333 -176 -172 -220l-68 -8c-94.667 0 -164 57.333 -208 172l-4 40v40c0 75.333 44 136.666 132 183.999c24.667 13.333 55.334 20 92.001 20zM559.999 1356h4c82 0 136.667 -44 164 -132
l8 -40c0 -82 -42.667 -139.333 -128 -172l-28 -8h-36c-56 0 -105.333 37.333 -148 112l-8 64c0 80.667 40 136.667 120 168c12 5.33301 29.333 8 52 8zM203.999 1308h27.999c62.667 0 101.334 -41.333 116.001 -124v-4c0 -59.333 -29.333 -99.333 -88 -120l-24 -8h-20
c-72 0 -114.667 41.333 -128 124v12c17.333 80 56 120 116 120zM223.998 984.001c64 0 114.668 -40 152.001 -120h8c58 48 114 72 168 72h32l12 -12v-48l12 -12l64 44c54 -28.667 91.333 -74 112 -136h12c69.333 50.667 134.666 76 195.999 76h36
c91.333 0 171.333 -44 240 -132c37.333 -49.333 56 -113.333 56 -192v-512c-2.66699 -8 -10.667 -12 -24 -12h-584l-16 16l4 28v196c0 14 -4 22 -12 24h-340l-24 8l4 40v176c0 14.667 -5.33301 24 -16 28h-248l-8 8v304c0 71.333 40 122 120 152z" />
    <glyph glyph-name="Z" unicode="Z" horiz-adv-x="3338" 
d="M1577 1412c18.667 0 28.002 -17.3369 28.002 -52.0039v-120c0 -72 8 -108 24 -108c20 -4.66699 105.333 -8.66699 256 -12c329.333 -40 584 -105.333 764 -196c309.333 -147.333 506.666 -335.333 591.999 -564c24 -68 36 -130.667 36 -188v-48
c0 -80 -10.667 -120 -32 -120l-56 -4h-1352c-61.333 0 -92 10.667 -92 32v708c0 29.333 10.667 44 32 44h8c149.333 -13.333 254.666 -28 315.999 -44c24 -7.33301 36 -20.666 36 -39.999l4 -24v-256c0 -88 9.33301 -132 28 -132l80 -4h376c56 0 84 6.66699 84 20v32
c0 70.667 -48 169.334 -144 296.001c-114.667 108.667 -229.334 179.334 -344 212.001c-170.667 50.667 -345.334 76 -524.001 76h-20c-45.333 0 -68 -13.333 -68 -40l-4 -68v-776c0 -24 -28 -36 -84 -36h-1360c-56 0 -84 9.33301 -84 28l-4 64v112c0 90.667 44 204 132 340
c92 112.667 178.667 195.334 260 248.001c140.667 94 308.667 172.667 504 236c152 34 228 56.667 228 68c8 18.667 12 52 12 100v132c0 40 16 60 48 60c116.667 16 223.334 24 320.001 24zM637.002 323.996l-0.000976562 -20c0 -13.333 28 -20 84 -20h376
c69.333 0 104 10.667 104 32c5.33301 13.333 8 37.333 8 72v404c0 40 -5.33301 60 -16 60h-28c-175.333 -48 -312.666 -133.333 -411.999 -256c-77.333 -117.333 -116 -208 -116 -272z" />
    <glyph glyph-name="bracketleft" unicode="[" horiz-adv-x="758" 
 />
    <glyph glyph-name="backslash" unicode="\" horiz-adv-x="569" 
 />
    <glyph glyph-name="bracketright" unicode="]" horiz-adv-x="758" 
 />
    <glyph glyph-name="asciicircum" unicode="^" 
 />
    <glyph glyph-name="underscore" unicode="_" horiz-adv-x="1024" 
 />
    <glyph glyph-name="grave" unicode="`" horiz-adv-x="1024" 
 />
    <glyph glyph-name="a" unicode="a" horiz-adv-x="1481" 
d="M132 1408l132.001 -155.999c153.333 -158.667 260 -250.667 320 -276c77.333 -45.333 129.333 -68 156 -68c168.667 39.333 370 204.666 604 495.999h4l8 -8c-34.667 -84 -66.667 -208 -96 -372l-16 -144v-64l-4 -68l4 -72v-64c18.667 -186.667 54.667 -368 108 -544
c4 -0.666992 9.33301 -16.667 16 -48l-4 -4h-4c-86 100 -158 197.333 -216 292c-79.333 127.333 -134 243.333 -164 348h-4c-56.667 -18 -115.334 -94 -176.001 -228c-24 -60.667 -41.333 -118 -52 -172l-4 -4h-4c-8 0 -18.667 36 -32 108
c-62 164.667 -128.667 263.334 -200 296.001c-8.66699 0 -22 -33.333 -40 -100c-67.333 -162.667 -182 -341.334 -344 -536.001h-4l-8 8c85.333 250.667 128 492 128 724c0 208 -38.667 425.333 -116 652l4 4h4z" />
    <glyph glyph-name="b" unicode="b" horiz-adv-x="2068" 
d="M1493 428h20v-8h-20v8zM1408 1396l2.99707 -2.99902v-2c0 -7.33301 -9.33301 -19 -28 -35v-11h10c44.667 14 77.334 21 98.001 21h2c12 0 18 -6 18 -18c0 -19.333 -39.333 -37.666 -118 -54.999c-26.667 -8.66699 -40 -15.334 -40 -20.001v-5h2
c142.667 0 261.667 -70.333 357 -211c38.667 -74.667 58 -123.334 58 -146.001c4.66699 -26.667 21.334 -40 50.001 -40l30 -2c49.333 0 100.333 9 153 27l2 -7c-19.333 -40.667 -65.333 -72.667 -138 -96c-38 -6.66699 -57 -12.334 -57 -17.001v-5
c23.333 -10 60 -17.667 110 -23h40c35.333 0 53 -2.33301 53 -7c-60.667 -45.333 -114.334 -68 -161.001 -68c0 -3.33301 -13.333 -5 -40 -5l-22 -3c-6 0 -15.333 -26 -28 -78c-79.333 -199.333 -226.666 -355 -441.999 -467
c-88.667 -41.333 -181.334 -73.666 -278.001 -96.999c-58 -10 -120 -17.667 -186 -23h-88c-59.333 -0 -146.333 14.333 -261 43c-196.667 66.667 -349 167.667 -457 303l3 3h2c101.333 -62 191.666 -93 270.999 -93h83c78.667 0 166.667 31 264 93
c22.667 16 44.334 34.333 65.001 55v13c0 4 -21 9 -63 15c-43.333 22.667 -65 47.667 -65 75v3c0 24 21 49 63 75v10c-105.333 0 -180.666 39.333 -225.999 118v7c32 32 68 48 108 48l7 8v5c-68 21.333 -120 49.666 -156 84.999c-33.333 45.333 -50 80.333 -50 105
c0 6 37 13 111 21v5l-66 50c-63.333 59.333 -95 117 -95 173v13l5 5c70 -22 179.667 -65.667 329 -131c124.667 -57.333 211.667 -107.666 261 -150.999c44 -40 70 -60 78 -60l70 166c40.667 88 88.334 165 143.001 231c44.667 44.667 70.667 68 78 70h2l16 -18l87 43z" />
    <glyph glyph-name="c" unicode="c" horiz-adv-x="3423" 
d="M2107 1360c241.333 0 438.666 -112.002 592 -336.002c56 -113.333 84 -194.666 84 -243.999c8 -21.333 20 -32 36 -32h12c54.667 13.333 100 20 136 20c154.667 0 268 -76 340 -228c21.333 -51.333 32 -104.666 32 -159.999c0 -134 -52 -239.333 -156 -316
c-66 -42.667 -148.667 -64 -248 -64h-1248c-26.667 -0 -40 17.333 -40 52l4 68v1044c0 39.333 50.667 82 152 128c88.667 45.333 190 68 304 68zM1195 1116h36c29.333 0 44 -28 44 -84v-952c0 -53.333 -12 -80 -36 -80h-40c-24 0 -36 14.667 -36 44v1032
c0 26.667 10.667 40 32 40zM1399 1080l88 -32h4l44 8c10.667 -3.33301 16 -15.333 16 -36v-952c0 -45.333 -13.333 -68 -40 -68h-96c-29.333 0 -44 12 -44 36v1016c0 18.667 9.33301 28 28 28zM979 1072c10.667 -11.333 16 -22 16 -32v-996c0 -29.333 -12 -44 -36 -44h-36
c-24 0 -36 18.667 -36 56v932c0 40 30.667 68 92 84zM703 827.998l4 0.000976562l12 -12v-760c0 -37.333 -12 -56 -36 -56h-36c-26.667 0 -40 20 -40 60v528c0 20 12 54.667 36 104c24 85.333 44 130.666 60 135.999zM399 699.999h8c21.333 0 32 -10.667 32 -32v-632
c-3.33301 -24 -15.333 -36 -36 -36h-24c-32 0 -48 21.333 -48 64v568c0 45.333 22.667 68 68 68zM155 571.999c8 -1.33301 12 -12 12 -32v-384c0 -24 -6.66699 -36 -20 -36c-20.667 0 -48.667 56 -84 168l-4 60c0 79.333 26.667 154 80 224h16z" />
    <glyph glyph-name="d" unicode="d" horiz-adv-x="1735" 
d="M146 1013l408.999 -0.000976562c152 0 253.333 -53 304 -159c14.667 -32 22 -65.333 22 -100v-15c0 -72 -33 -135 -99 -189v-2c51.333 -23.333 92 -62.666 122 -117.999c14 -32 21 -64.667 21 -98v-32c0 -98 -47.667 -178 -143 -240
c-61.333 -30 -139.666 -45 -234.999 -45h-405l-15 15l6 972zM1129 917.999h370l4 -4v-79l-4 -4h-370l-4 4v79zM314.999 849.999l-2 -107.001v-127h187c99.333 0 160 17.333 182 52c12.667 24 19 45.333 19 64c0 46.667 -20.667 80.334 -62 101.001
c-28 11.333 -73 17 -135 17h-189zM1300 768.998c149.333 0 255.666 -67.332 318.999 -201.999c18.667 -48.667 28 -108.334 28 -179.001v-28c0 -22 -6.33301 -33 -19 -33h-512c7.33301 -44.667 20.333 -80.334 39 -107.001c38.667 -48 88.334 -72 149.001 -72
c72.667 0 124.334 37 155.001 111c6 16 12.333 25.333 19 28h9c27.333 0 75 -5.66699 143 -17l11 -15v-17c-8.66699 -45.333 -34.667 -92.666 -78 -141.999c-64.667 -64 -145.667 -96 -243 -96h-41c-142.667 0 -247 65 -313 195c-20 56 -30 110 -30 162v31
c0 172 73 291.667 219 359c43.333 14.667 91.666 22 144.999 22zM1125 476.999h337.998c-8 42 -21.667 73 -41 93c-39.333 34 -80.666 51 -123.999 51c-39.333 0 -78.666 -15 -117.999 -45c-34 -37.333 -52.333 -70.333 -55 -99zM310.997 451.999v-1.99902l-2 -272h236
c90 0 148.333 22.667 175 68c12.667 25.333 19 49.666 19 72.999c0 45.333 -21.333 81 -64 107c-32.667 17.333 -86 26 -160 26h-204z" />
    <glyph glyph-name="e" unicode="e" horiz-adv-x="1469" 
d="M736 1500l647.001 -373l4 -6v-725l-4 -5v-17c-14.667 -12.667 -107 -66.667 -277 -162l-354 -203c-6.66699 -6 -13 -9 -19 -9l-325 184l-322 188v19l-4 5v725c5.33301 8 49.666 34.667 132.999 80c316 184 489.333 283.667 520 299h1zM232.001 1100l-0.00195312 -4
c256.667 -145.333 424.334 -242.666 503.001 -291.999c78 49.333 245.333 146.666 502 291.999v4l-457 262l-38 19l-7 -2l-10 2c-27.333 -13.333 -189.666 -106.333 -486.999 -279zM178.999 1015v-586l508 -292v586zM781.999 723v-586l508 292v586z" />
    <glyph glyph-name="f" unicode="f" horiz-adv-x="2066" 
d="M511 851h47.001c78 0 158.667 -30.333 242 -91c64 -56 107.333 -114 130 -174c20 -55.333 30 -101 30 -137v-47c0 -94.667 -41.667 -188.334 -125 -281.001c-92 -80.667 -184.333 -121 -277 -121h-47c-94.667 0 -188.334 41.667 -281.001 125
c-80.667 92 -121 184.333 -121 277v47c0 94.667 41.667 188.334 125 281.001c92 80.667 184.333 121 277 121zM1508 851l47.001 -0.000976562c78 0 158.667 -30.333 242 -91c59.333 -52 97.333 -99.333 114 -142c30.667 -61.333 46 -117.666 46 -168.999v-47
c0 -94.667 -41.667 -188.334 -125 -281.001c-92 -80.667 -184.333 -121 -277 -121h-47c-94.667 0 -188.334 41.667 -281.001 125c-80.667 92 -121 184.333 -121 277v47c0 94.667 41.667 188.334 125 281.001c92.667 80.667 185 121 277 121z" />
    <glyph glyph-name="g" unicode="g" horiz-adv-x="1604" 
d="M527 1250l367.999 -0.00390625l3 -3l-80 -59h-115v-1c79.333 -46 119 -121.333 119 -226c0 -82.667 -50 -160 -150 -232c-24 -24 -36 -49.333 -36 -76c0 -35.333 47.333 -87 142 -155c40 -37.333 65.667 -71.333 77 -102l16 -59l2 -65
c0 -98.667 -59 -177.334 -177 -236.001c-37.333 -14 -71.333 -23.667 -102 -29l-2 -2h-9l-46 -5h-96c-89.333 9.33301 -157.333 25 -204 47c-36 16.667 -68.333 40 -97 70c-24 30.667 -36 54.334 -36 71.001c-2 0 -3.33301 4 -4 12v46
c2.66699 42.667 25.667 88.334 69 137.001c56 50.667 108.333 82.334 157 95.001c40.667 16.667 113 25 217 25v6c-32.667 34.667 -49 67.334 -49 98.001v13c0 12.667 5.33301 33.667 16 63h-2l-5 2l-20 -2c-135.333 0 -229.666 59 -282.999 177c-12 36 -18 65.333 -18 88
v34c0 52.667 28.667 109.334 86 170.001c74.667 65.333 161 98 259 98zM1274 1250h49.001l5 -5v-243l4 -3h244l4 -4v-53l-4 -3h-233c-8.66699 0 -13.667 -2 -15 -6v-42l-1 -204l-2 -2h-51l-2 2h-2l-2 110v136c-0.666992 4 -4.33398 6 -11.001 6h-237l-3 3v51l5 6h243l3 3
v243zM315 1006c0 -96 39.666 -178.667 118.999 -248c35.333 -24 70.333 -36 105 -36c50 0 90.667 28 122 84c17.333 37.333 26 74.333 26 111c0 32 -8.66699 72.667 -26 122c-33.333 74 -78.666 122.667 -135.999 146c-22 8 -42 12 -60 12
c-66.667 0 -113.667 -40.667 -141 -122c-6 -26 -9 -49 -9 -69zM232.999 263.996c0 -81.333 48.667 -144.332 146 -188.999c37.333 -13.333 76.333 -20 117 -20c133.333 0 220.666 37.667 261.999 113c12 31.333 18 53.666 18 66.999v42c0 52 -45.333 105.333 -136 160
c-25.333 22 -66.666 33 -123.999 33c-96.667 0 -177 -33.333 -241 -100c-28 -34 -42 -69.333 -42 -106z" />
    <glyph glyph-name="h" unicode="h" horiz-adv-x="1754" 
d="M880 1276c40 0 79.666 -14.334 118.999 -43.001l580 -372v-2c-10.667 -10.667 -36.667 -30.667 -78 -60l-81 -63h-4l-4 4v67c-6 31.333 -15.667 54 -29 68c-24.667 26 -54 39 -88 39l-33 -2h-789l-12 2c-44 0 -79 -21.667 -105 -65l-10 -33v-78l-4 -4h-2l-163 123v4
l220 142l337 215c36.667 25.333 66.334 42 89.001 50c0 2.66699 19 5.33398 57 8.00098zM102.999 782.999l366.004 -275.001c175.333 -132.667 278.666 -209 309.999 -229c19.333 -12.667 47.666 -22 84.999 -28h28c41.333 6.66699 71.666 17 90.999 31l600 449l65 48h5
c5.33301 0 8.66602 -16 9.99902 -48l-2 -34v-430l2 -142c0 -25.333 -5.66699 -44.333 -17 -57l-378 281c-5.33301 4.66699 -12.666 7.66699 -21.999 9c-20.667 -3.33301 -31 -13.666 -31 -30.999v-9c0 -9.33301 20.667 -27 62 -53l221 -166l103 -78v-2
c0 -4.66699 -15 -11 -45 -19h-1356l-41 14v4c3.33301 4 87.666 68 252.999 192l119 88c9.33301 8 14 17 14 27c0 14.667 -5.33301 24.667 -16 30l-15 3c-10 0 -32.667 -14.667 -68 -44l-330 -248h-6c-10 14 -15 35.667 -15 65l-2 592l-2 21c4.66699 26 8.66699 39 12 39z
M716.003 772.998h322c6.66699 0 11 -2.33301 13 -7v-2c-2.66699 -6.66699 -9 -10 -19 -10h-312c-10 0 -15.667 2.66699 -17 8v4c2 4.66699 6.33301 7 13 7zM714.003 663.998l330 0.000976562l7 -7v-2c0 -2.66699 -4.33301 -5.33398 -13 -8.00098l-24 2h-305l-6 6v3
c1.33301 4 5 6 11 6zM716.003 556.999h320c6.66699 0 11.667 -3.33301 15 -10v-2l-11 -7l-39 2h-248l-41 -2c-5.33301 2 -8.33301 4.33301 -9 7v4c2 5.33301 6.33301 8 13 8z" />
    <glyph glyph-name="i" unicode="i" horiz-adv-x="1588" 
d="M792 1430h8c178 0 339.333 -65.333 484 -196c144 -145.333 216 -308 216 -488v-56c0 -210 -100 -391.333 -300 -544c-128 -85.333 -261.333 -128 -400 -128h-20c-204.667 0 -386 90.667 -544 272c-98.667 130 -148 267.333 -148 412v60c0 147.333 62.667 295.333 188 444
c151.333 149.333 323.333 224 516 224zM640 1302v-4.00098c0 -9.33301 26.667 -46.666 80 -111.999c39.333 -55.333 91.333 -139.333 156 -252h4c91.333 32 202 102.667 332 212v8c-120 114.667 -249.333 172 -388 172h-44c-82 -2.66699 -128.667 -10.667 -140 -24z
M200 829.999c0 -16 10.666 -24 31.999 -24h76c148.667 0 302 28 460 84v20c-59.333 107.333 -135.333 218 -228 332c-5.33301 10.667 -13.333 16 -24 16c-131.333 -65.333 -228.666 -176 -291.999 -332zM923.999 825.999c23.333 -59.333 39.333 -91.334 48 -96.001l168 16
h52c38.667 0 104 -8 196 -24l12 16c0 100.667 -34.667 207.334 -104 320.001l-12 4c-152 -116 -270.667 -190.667 -356 -224zM315.999 701.998l-111.999 -0.000976562c-6.66699 0 -10.667 -5.33301 -12 -16c0 -122 52 -243.333 156 -364l16 -4
c23.333 47.333 88.666 119.333 195.999 216c92 70.667 178.667 121.334 260 152.001c26.667 4.66699 40 12.667 40 24c-21.333 56 -36 84 -44 84h-4c-170.667 -61.333 -336 -92 -496 -92zM1004 613.997c53.333 -177.333 80 -303.999 80 -379.999l4 -20l4 -4h20
c120.667 74.667 206 184 256 328l16 60v4c-8.66699 21.333 -82 34.666 -220 39.999c-106.667 0 -160 -9.33301 -160 -28zM444 249.998v-12c102 -77.333 218 -116 348 -116c130.667 7.33301 196 23.333 196 48v4c-13.333 135.333 -33.333 243.333 -60 324
c-14 66.667 -27.333 100 -40 100c-193.333 -72 -341.333 -188 -444 -348z" />
    <glyph glyph-name="j" unicode="j" horiz-adv-x="1621" 
d="M623 1395l5.99902 0.000976562c41.333 -6.66699 62 -27.334 62 -62.001v-6c0 -20 -7.66699 -35.333 -23 -46v-4c56.667 -96.667 98.667 -172.667 126 -228l13 -12l2 2h2l5 -2c9.33301 9.33301 33 52 71 128l66 112v4c-15.333 10.667 -23 26 -23 46v6
c6.66699 41.333 27.334 62 62.001 62h6c41.333 -6.66699 62 -27.334 62 -62.001v-6c-6.66699 -41.333 -27.334 -62 -62.001 -62h-4l-87 -237l30 -39h444c30 0 66.667 -18 110 -54c27.333 -30.667 41 -63.667 41 -99v-688c0 -30 -16.667 -66.333 -50 -109
c-26.667 -26 -57 -39 -91 -39h-1161c-64 0 -109.667 41.667 -137 125l-4 23v688c0 72.667 45.667 123 137 151l14 2h444c20 23.333 30 37 30 41l-87 235h-4c-41.333 6.66699 -62 27.334 -62 62.001v6c6.66699 41.333 27.334 62 62.001 62zM653.999 755.001v-502h2l432 249v4
z" />
    <glyph glyph-name="k" unicode="k" horiz-adv-x="1639" 
d="M477 1456h42.002c50 0 109.667 -16.333 179 -49c44 6.66699 85.667 10 125 10c189.333 0 357.333 -74 504 -222c84.667 -98.667 138.667 -200 162 -304c12 -54 18 -99.667 18 -137v-44c0 -38 -3.66699 -72.667 -11 -104c34 -61.333 51 -125 51 -191v-17
c0 -98.667 -37 -189 -111 -271c-84.667 -84.667 -183.334 -127 -296.001 -127c-65.333 0 -131 17 -197 51h-2c-48.667 -7.33301 -89.667 -11 -123 -11c-198 0 -370 78.333 -516 235c-114 132.667 -171 285 -171 457c0 36 3.66699 76.667 11 122c-34 60.667 -51 127 -51 199
c0 124.667 52.333 230.667 157 318c77.333 56.667 153.666 85 228.999 85zM473.002 908c0 -108 58.666 -180.001 175.999 -216.001l273 -71c37.333 -17.333 56 -43.666 56 -78.999c0 -52 -37 -87 -111 -105l-40 -4h-14c-73.333 0 -129.666 28.333 -168.999 85
c-28 42 -58.667 63 -92 63h-3c-52.667 -6 -79 -31.667 -79 -77c0 -58.667 39.667 -112.334 119 -161.001c70.667 -32.667 148.334 -49 233.001 -49c171.333 2.66699 280.333 57.334 327 164.001c12.667 29.333 19 63.333 19 102c0 116 -66 193 -198 231
c-160 32 -252.333 56 -277 72c-23.333 16 -35 35.333 -35 58v2c0 40.667 24.667 70 74 88c23.333 5.33301 45.666 8 66.999 8c80 0 139.667 -29.333 179 -88c24 -24.667 47 -37 69 -37c38.667 0 65.667 16 81 48c2.66699 2.66699 5 12 7 28c0 64.667 -52.333 118 -157 160
c-58.667 22.667 -115 34 -169 34c-116.667 0 -208 -31.333 -274 -94c-41.333 -42 -62 -96 -62 -162z" />
    <glyph glyph-name="l" unicode="l" horiz-adv-x="2090" 
d="M349 1836h1392c96 0 167 -52.333 213 -157c6 -26.667 9 -48.334 9 -65.001v-1392c0 -96 -52.333 -167 -157 -213c-26.667 -6 -48.334 -9 -65.001 -9h-1392c-96 0 -167 52.333 -213 157c-6 26.667 -9 48.334 -9 65.001v1392c0 96 52.333 167 157 213
c26.667 6 48.334 9 65.001 9zM783 1482c-207.333 -63.333 -310.999 -170 -310.999 -320v-495c36 -122 101 -217.333 195 -286c39.333 -21.333 81.666 -32 126.999 -32h479c44.667 3.33301 101.334 24 170.001 62c94 56 141 140 141 252v313c0 48 -23.333 72 -70 72h-55
c-45.333 16.667 -68 62.334 -68 137.001c0 47.333 -29.333 110.666 -88 189.999c-68.667 72.667 -142.334 109 -221.001 109zM853.001 1182h166c46.667 0 70 -20.333 70 -61c0 -39.333 -23.333 -59 -70 -59h-166c-46.667 0 -70 20.333 -70 61c0 39.333 23.333 59 70 59z
M821.001 772l448 0.000976562c28.667 -4.66699 43 -19.334 43 -44.001v-18c-4.66699 -28.667 -19 -43 -43 -43h-448c-28.667 4.66699 -43 19 -43 43v18c4.66699 29.333 19 44 43 44z" />
    <glyph glyph-name="m" unicode="m" horiz-adv-x="1682" 
d="M770 1810l1.99902 -0.000976562c78 -72 129.333 -136 154 -192c34.667 -68 61 -154 79 -258c7.33301 -57.333 14.666 -89.333 21.999 -96c46 -133.333 69 -256.333 69 -369v-18c0 -270 -129.667 -510 -389 -720v-5l2 2h14c62.667 0 138.667 24 228 72
c144.667 108 217 250.333 217 427c0 54.667 -12 120.334 -36 197.001c32.667 15.333 83.334 34 152.001 56c28.667 -69.333 43 -145.333 43 -228v-49c0 -202 -91.667 -376 -275 -522c-104.667 -71.333 -214.334 -107 -329.001 -107h-63c-220 -0 -400.333 122.333 -541 367
c-42 92 -63 180 -63 264v45c0 205.333 100.667 385.666 302 540.999c98.667 61.333 207.667 92 327 92h18c78.667 0 148.667 -12.667 210 -38v-2c-18 -39.333 -33 -88.666 -45 -147.999l-2 -2h-2c-56.667 19.333 -112 29 -166 29h-27c-149.333 0 -276.666 -79 -381.999 -237
c-44.667 -82.667 -67 -171.667 -67 -267c0 -175.333 75.333 -317 226 -425c76 -37.333 128 -56 156 -56l2 -2c48 16 107.667 57.667 179 125c80.667 95.333 138.334 211 173.001 347c41.333 160.667 62 307 62 439v20c0 124.667 -7.33301 200 -22 226
c-54 167.333 -130 330 -228 488v4zM1517 1772c64 -104 96 -210.666 96 -319.999v-11c0 -141.333 -54.333 -264.333 -163 -369c-41.333 -28.667 -90.666 -43 -147.999 -43c-65.333 0 -126.333 31.333 -183 94v2c29.333 16 64.333 38.333 105 67
c159.333 110 248.666 206.333 267.999 289v2h-2c0 -28.667 -54.333 -95.667 -163 -201c-86 -56 -151 -87.333 -195 -94c0 -2.66699 -18.667 -7 -56 -13c-28 44 -42 88.667 -42 134v18c0 130 97 217.333 291 262c56 23.333 100 53.666 132 90.999c27.333 32 45 62 53 90l3 2
h4z" />
    <glyph glyph-name="n" unicode="n" horiz-adv-x="1931" 
d="M936 1766h61.001c151.333 0 305 -49.333 461 -148l3 -2v-841c0 -55.333 -25.667 -92.333 -77 -111l-32 -4h-2c-49.333 0 -83.666 29.667 -102.999 89v227c0 128.667 -19.667 212.667 -59 252c-47.333 50.667 -100.333 76 -159 76h-468
c-115.333 0 -199.333 -53.667 -252 -161c-12 -27.333 -18 -57.666 -18 -90.999v-9c0 -104.667 51.667 -175.667 155 -213c35.333 -10.667 95.666 -21.667 180.999 -33c22 -9.33301 36.333 -21 43 -35c4 -20 7 -30 9 -30c0 -32 -17.333 -53 -52 -63
c-7.33301 -6 -44.333 -9 -111 -9h-403c-12 0 -23 65.333 -33 196v30c0 215.333 72.667 408.333 218 579c88 91.333 145.333 141.666 172 150.999c151.333 100 306.666 150 465.999 150zM1661 1422h2c122 -161.333 183 -329.666 183 -504.999v-66
c0 -220.667 -92.333 -425.334 -277 -614.001c-96.667 -83.333 -175.667 -136.333 -237 -159c-116.667 -52 -230 -78 -340 -78h-76c-140 0 -291.667 51.667 -455 155c-136.667 100.667 -231 209.334 -283 326.001l2 2h373c156 0 257.333 54.667 304 164
c10.667 35.333 16 62 16 80v26c0 90.667 -39.333 157 -118 199c-41.333 18 -117.666 36.667 -228.999 56c-26 10 -39 27.333 -39 52c0 50 37 75 111 75h307c69.333 0 113.666 -18.333 132.999 -55c6 -10.667 9 -22.334 9 -35.001v-246c0 -139.333 50.667 -233 152 -281
c44 -23.333 93.333 -35 148 -35h11c128 0 220.333 54.667 277 164c17.333 32 26 90.667 26 176v599z" />
    <glyph glyph-name="o" unicode="o" horiz-adv-x="1692" 
d="M422 1448h852c102 0 190 -58.667 264 -176c21.333 -48 32 -98.667 32 -152v-808c0 -109.333 -50.667 -198.666 -152 -267.999c-53.333 -29.333 -96 -44 -128 -44h-884c-76 0 -152 45.333 -228 136c-37.333 62 -56 118 -56 168v836c0 103.333 54.667 192.666 164 267.999
c44.667 26.667 90 40 136 40zM914 924l95.998 -31.999c16 -14.667 24 -37.334 24 -68.001v-4c0 -65.333 -36 -144 -108 -236l-24 -8h-24c-54.667 0 -93.334 125.333 -116.001 376c-27.333 112 -66 168 -116 168h-28c-61.333 0 -158.666 -64 -291.999 -192l-20 -24v-12
c0 -24 14.667 -36 44 -36l112 4c27.333 -18 62 -110 104 -276c46.667 -229.333 109.334 -344 188.001 -344h28c134.667 0 293.334 160 476.001 480c64 140 96 240 96 300v32c0 40 -25.333 70.667 -76 92l-56 8h-24c-112.667 0 -206 -68 -280 -204z" />
    <glyph glyph-name="p" unicode="p" horiz-adv-x="1832" 
d="M692 1829h14.002c70 0 124.333 -49.667 163 -149c13.333 -34 20 -63.333 20 -88v-67c0 -62 -22.333 -124.333 -67 -187c-38.667 -42 -81.334 -63 -128.001 -63h-12c-74.667 0 -132 65.667 -172 197l-10 84c0 92 29.667 169.333 89 232
c29.333 27.333 63.666 41 102.999 41zM1236 1786h3.00098c54 0 108.333 -41.667 163 -125c18.667 -40 28 -76.667 28 -110v-22c0 -79.333 -39 -158.333 -117 -237c-40.667 -25.333 -76.667 -38 -108 -38h-14c-83.333 0 -140.333 44 -171 132c-8 41.333 -12 70 -12 86v21
c0 64 22.667 127.333 68 190c53.333 68.667 106.666 103 159.999 103zM268.003 1407h9c84.667 0 152 -57.333 202 -172c8 -25.333 12 -62.333 12 -111c0 -128.667 -47.333 -211 -142 -247l-76 -9c-85.333 0 -147 54.333 -185 163c-8 27.333 -12 50.333 -12 69v60
c0 45.333 22.333 107 67 185c38 41.333 79.667 62 125 62zM1521 1273l27.001 -0.000976562c91.333 0 156 -52.667 194 -158c8 -30 12 -55.667 12 -77v-72c0 -56 -16.667 -108.667 -50 -158c-36 -40 -87.333 -60 -154 -60c-85.333 0 -145.333 28.667 -180 86
c-18.667 38 -28 78.667 -28 122v96c0 48.667 14.333 98.334 43 149.001c35.333 48 80.666 72 135.999 72zM905.004 1083c110.667 0 208.337 -69.999 293.004 -209.999c36.667 -50 111.667 -128.333 225 -235c113.333 -94 170 -151.667 170 -173
c22.667 -36.667 34 -87.667 34 -153c0 -84 -26.333 -160 -79 -228c-58 -49.333 -110 -74 -156 -74c-16.667 -6.66699 -32.667 -10 -48 -10h-72c-62.667 8 -155.334 26.333 -278.001 55l-86 5c-34.667 0 -135.334 -12.667 -302.001 -38h-137
c-90.667 0 -163.334 36.667 -218.001 110c-41.333 67.333 -62 137.666 -62 210.999c0 115.333 70.333 223 211 323c122 107.333 197 183.333 225 228c75.333 126 168.666 189 279.999 189zM726.007 642c0 -8 -2.66699 -12.667 -8 -14h-107
c-59.333 0 -108.333 -22.333 -147 -67c-46 -46 -69 -98.667 -69 -158v-7c0 -122.667 60.667 -201 182 -235l34 -5h215c19.333 0 29 5.66699 29 17v596l-5 29h-108c-10.667 0 -16 -10.333 -16 -31v-125zM910.007 278c0 -47.333 36.666 -85 109.999 -113
c16.667 -2.66699 42.334 -4 77.001 -4h170c48 0 72 4 72 12l3 24v383c0 22.667 -5 34 -15 34l-33 2h-48c-28.667 0 -43 -3.33301 -43 -10l-3 -12v-292c0 -14.667 -5.66699 -22 -17 -22h-74c-44.667 0 -67 14.667 -67 44v215l-2 72l-29 5h-67c-22.667 0 -34 -4.66699 -34 -14
v-324zM647.006 518h61.999c8.66699 0 14.334 -3.33301 17.001 -10v-206c0 -20.667 -6.66699 -31 -20 -31h-76c-40.667 0 -70.334 23 -89.001 69l-10 36v27c0 46.667 25 82.667 75 108c14.667 4.66699 28.334 7 41.001 7z" />
    <glyph glyph-name="q" unicode="q" horiz-adv-x="1931" 
d="M937 1843l69 0.00195312c105.333 0 226.333 -32.333 363 -97c0 -2.66699 6 -6.66699 18 -12c3.33301 -6.66699 5 -16.334 5 -29.001v-2l11 -469l3 -2v-2l-3 -3l3 -15v-30l-5 -5h-2l-703 619c0 11.333 61.667 25.666 185 42.999zM556 1737l2 0.000976562l334 -300v-7
l-787 -691c-10 11.333 -16.667 69.666 -20 174.999v23c0 241.333 89.333 458 268 650c93.333 86 161 136 203 150zM1528 1632l3 -0.000976562c82.667 -77.333 134 -135.666 154 -174.999c40 -56.667 70.333 -112 91 -166c48.667 -120 73 -230.667 73 -332v-77
c0 -66.667 -14.333 -150 -43 -250l-3 -2h-268c-2.66699 0 -4 2 -4 6l-7 980l-2 7zM453 884.002h5l4 -4l-2 -3l2 -2v-2l7 -705l-2 -2h-2c-118 88 -206.667 188.667 -266 302c-36.667 74 -55 117.333 -55 130zM1753 516.002c3.33301 0 5 -2.33203 5 -6.99902
c-22.667 -50.667 -60.667 -111.334 -114 -182.001c-188 -218 -413 -327 -675 -327c-120.667 0 -235.667 24.333 -345 73l-3 2v2l3 353l2 84l2 2h1125z" />
    <glyph glyph-name="r" unicode="r" horiz-adv-x="1989" 
d="M467 1793h18.999c479.333 0 845.333 -110 1098 -330c208.667 -197.333 313 -559.333 313 -1086c0 -141.333 -7 -267 -21 -377h-5l-278 5l3 134c0 462.667 -73 802 -219 1018c-63.333 74 -120.666 123.333 -171.999 148c-57.333 34.667 -131.333 67 -222 97
c-241.333 69.333 -488 104 -740 104h-103l-5 4v31l2 2l-2 3l2 63v92l3 71c85.333 14 194.333 21 327 21zM369.999 1213c348 0 605 -84 771 -252c120.667 -140.667 181 -373 181 -697c-3.33301 -168 -9.66602 -252 -18.999 -252h-336l-3 2h-2
c15.333 75.333 23 159.333 23 252h3l-3 3v21l3 2l-3 3v9c0 244 -72 404.333 -216 481c-100 46.667 -204.667 70 -314 70h-87c-62.667 0 -137.334 -7.66699 -224.001 -23l-2 2v361c0 8.66699 76 14.667 228 18zM426.999 629c104 0 189.667 -46.334 257 -139.001
c34.667 -53.333 52 -109 52 -167c0 -116.667 -56 -208 -168 -274c-47.333 -23.333 -94.333 -35 -141 -35c-106 0 -192.333 46.333 -259 139c-34.667 52.667 -52 108.334 -52 167.001c0 102 44 186.333 132 253c55.333 37.333 115 56 179 56z" />
    <glyph glyph-name="s" unicode="s" horiz-adv-x="2248" 
d="M2068 1818l-0.00195312 -4.99902c-50 -14 -117.333 -60.333 -202 -139c-58 -62.667 -98.333 -111.334 -121 -146.001h-931v-10c3.33301 0 57.333 -52 162 -156l8 -6h946c136 12 231.667 24 287 36v-5c-56.667 -18 -119 -56.333 -187 -115l-3 -3v-7h3l-3 -26v-105
c-3.33301 -4.66699 -123.666 -77.334 -360.999 -218.001l-344 -203c-60 -345.333 -91.667 -518 -95 -518l-266 -192l-3 3h-3l129 756c0 24.667 -61.667 47 -185 67h-8v5c99.333 0 211.333 38.333 336 115l326 180v7l-31 -2h-631c-70.667 0 -185 -14.667 -343 -44v5
c68.667 22.667 139.667 66.334 213 131.001c-135.333 160.667 -222.666 261.667 -261.999 303h-123l-67 84c-57.333 58 -118 106.667 -182 146l-92 57h5c88 -29.333 209.333 -44 364 -44h1303c96.667 0 206 13.667 328 41z" />
    <glyph glyph-name="t" unicode="t" horiz-adv-x="1305" 
d="M296 1440c85.333 0 145.332 -50.667 179.999 -152l4 -32v-168l8 -8h580c90 0 155.333 -46.667 196 -140v-84c-44.667 -96 -104.667 -144 -180 -144h-596l-8 -8v-76c0 -119.333 54.667 -200.666 164 -243.999l40 -4h368c103.333 0 170 -42.667 200 -128l12 -16v-88
c-32 -68 -72 -112 -120 -132c-14.667 -10.667 -60 -16 -136 -16h-192c-182 0 -296.667 16 -344 48c-146 67.333 -252.667 183.333 -320 348c-18.667 51.333 -32 124.666 -40 219.999l-4 20v588c11.333 76.667 31.333 128.667 60 156c46.667 40 89.334 60 128.001 60z" />
    <glyph glyph-name="u" unicode="u" horiz-adv-x="2077" 
d="M254 1839h1576c22 0 48.667 -12.333 80 -37c26 -28 39 -54.667 39 -80v-1605c0 -30 -16 -59 -48 -87c-27.333 -20 -54 -30 -80 -30h-1565c-32.667 -0 -64.667 14.333 -96 43c-21.333 26 -32 52 -32 78v1597c0 48.667 29 86.667 87 114zM382 1388l-0.00195312 -5.99902
c2.66699 -27.333 9.33398 -50.333 20.001 -69c18.667 -32 49.334 -54 92.001 -66l21 -5h50c21.333 0 51 13 89 39c26 28 40.667 56.333 44 85v45c-2 20 -13.667 45.333 -35 76c-25.333 23.333 -50.333 37.666 -75 42.999l-28 5h-39c-30 -2.66699 -58.667 -14 -86 -34
c-35.333 -32 -53 -69.667 -53 -113zM1112 1034v90.998c-2 4.66699 -6.66699 7 -14 7h-256c-6 0 -10.667 -2.33301 -14 -7l2 -68v-330l-2 -427l7 -5h270l7 7v464c0 54.667 15 95.334 45 122.001c28 27.333 60 41 96 41h10c62 0 102.333 -33 121 -99
c7.33301 -19.333 11 -55 11 -107v-407l-2 -9c2 -8 7.33301 -12 16 -12h261l7 7v476c0 182.667 -65.667 300.667 -197 354c-26 10.667 -67.333 18.334 -124 23.001c-63.333 -5.33301 -108.333 -15.333 -135 -30c-38 -18.667 -72.333 -49 -103 -91h-6zM397.998 1123v-814
c0 -9.33301 4.66699 -14 14 -14h263c4.66699 1.33301 7 6 7 14v805c0 11.333 -2.33301 17.333 -7 18h-268z" />
    <glyph glyph-name="v" unicode="v" horiz-adv-x="1891" 
d="M80 1448h875.998v-4c-43.333 -194.667 -68.666 -292 -75.999 -292h-360c-5.33301 0 -8 -4 -8 -12l228 -652h4c8 0 25.333 48 52 144l272 816h196l528 -8v-12l-156 -316l-4 -4h-356c-5.33301 0 -26.666 -64 -63.999 -192l-176 -568h492c12 0 29.333 -46.667 52 -140
l64 -200l-8 -8h-1064c-8.66699 0 -36.667 78.667 -84 236l-412 1200l-4 4z" />
    <glyph glyph-name="w" unicode="w" horiz-adv-x="1800" 
d="M200 1540h1408c42.667 0 64 -38.667 64 -116v-1316c0 -72 -25.333 -108 -76 -108h-1392c-50.667 -0 -76 29.333 -76 88v1364c4.66699 58.667 28.667 88 72 88zM1008 1092l-0.000976562 -200l-8 -8h-144l-8 -8v-200l8 -8h140c8 -2.66699 12 -10.667 12 -24v-532l-4 -4v-4
l12 -8h216l12 12v552l8 8h180l24 216h-200l-8 8v196c0 16 28 24 84 24h116l8 8v192l-8 8h-196c-117.333 0 -194.666 -50.667 -231.999 -152c-8 -16 -12 -41.333 -12 -76z" />
    <glyph glyph-name="x" unicode="x" horiz-adv-x="2444" 
d="M841 1424l1192 -0.000976562l8 -8c0 -133.333 -33.333 -336 -100 -608c-44 -132.667 -97.333 -222 -160 -268c-68 -92.667 -160 -158 -276 -196c-63.333 -16 -146 -24 -248 -24h-500l-8 8c33.333 132.667 77.333 222 132 268h4l216 -8c156 0 269.333 28 340 84
c47.333 24 108.666 78.667 183.999 164c37.333 45.333 62.666 112 75.999 200c0 19.333 5.33301 47.333 16 84h-4l-756 20c-207.333 0 -343.333 -56 -408 -168c-56 -90 -101.333 -191.333 -136 -304l-20 -64h52l4 -4h4c-41.333 -84.667 -65.333 -176.667 -72 -276l-4 -4
h-276c-5.33301 0 -8 4 -8 12c0 236.667 52 471.334 156 704.001c36.667 69.333 94 140 172 212c159.333 117.333 299.333 176 420 176zM1149 1092l488 -3.99902h16c5.33301 0 8 -4 8 -12c0 -114.667 -40 -202.667 -120 -264l-308 4c-175.333 0 -295.333 -49.333 -360 -148
c-67.333 -62 -118 -172.667 -152 -332l-8 -44h520l740 -4v320l8 8h312l8 -8v-600l-8 -8h-1888l-8 8v20c0 383.333 96 671.333 288 864c97.333 101.333 177.333 161.333 240 180c0 3.33301 16 8.66602 48 15.999zM2329 1088l8 -8v-252l-8 -8h-324l-8 8l64 260h268z" />
    <glyph glyph-name="y" unicode="y" horiz-adv-x="1435" 
d="M1012 1412c104.667 0 177.999 -55.999 219.999 -167.999l8 -60c0 -102.667 -57.333 -176 -172 -220l-68 -8c-94.667 0 -164 57.333 -208 172l-4 40v40c0 75.333 44 136.666 132 183.999c24.667 13.333 55.334 20 92.001 20zM559.999 1356h4c82 0 136.667 -44 164 -132
l8 -40c0 -82 -42.667 -139.333 -128 -172l-28 -8h-36c-56 0 -105.333 37.333 -148 112l-8 64c0 80.667 40 136.667 120 168c12 5.33301 29.333 8 52 8zM203.999 1308h27.999c62.667 0 101.334 -41.333 116.001 -124v-4c0 -59.333 -29.333 -99.333 -88 -120l-24 -8h-20
c-72 0 -114.667 41.333 -128 124v12c17.333 80 56 120 116 120zM223.998 984.001c64 0 114.668 -40 152.001 -120h8c58 48 114 72 168 72h32l12 -12v-48l12 -12l64 44c54 -28.667 91.333 -74 112 -136h12c69.333 50.667 134.666 76 195.999 76h36
c91.333 0 171.333 -44 240 -132c37.333 -49.333 56 -113.333 56 -192v-512c-2.66699 -8 -10.667 -12 -24 -12h-584l-16 16l4 28v196c0 14 -4 22 -12 24h-340l-24 8l4 40v176c0 14.667 -5.33301 24 -16 28h-248l-8 8v304c0 71.333 40 122 120 152z" />
    <glyph glyph-name="z" unicode="z" horiz-adv-x="3338" 
d="M1577 1412c18.667 0 28.002 -17.3369 28.002 -52.0039v-120c0 -72 8 -108 24 -108c20 -4.66699 105.333 -8.66699 256 -12c329.333 -40 584 -105.333 764 -196c309.333 -147.333 506.666 -335.333 591.999 -564c24 -68 36 -130.667 36 -188v-48
c0 -80 -10.667 -120 -32 -120l-56 -4h-1352c-61.333 0 -92 10.667 -92 32v708c0 29.333 10.667 44 32 44h8c149.333 -13.333 254.666 -28 315.999 -44c24 -7.33301 36 -20.666 36 -39.999l4 -24v-256c0 -88 9.33301 -132 28 -132l80 -4h376c56 0 84 6.66699 84 20v32
c0 70.667 -48 169.334 -144 296.001c-114.667 108.667 -229.334 179.334 -344 212.001c-170.667 50.667 -345.334 76 -524.001 76h-20c-45.333 0 -68 -13.333 -68 -40l-4 -68v-776c0 -24 -28 -36 -84 -36h-1360c-56 0 -84 9.33301 -84 28l-4 64v112c0 90.667 44 204 132 340
c92 112.667 178.667 195.334 260 248.001c140.667 94 308.667 172.667 504 236c152 34 228 56.667 228 68c8 18.667 12 52 12 100v132c0 40 16 60 48 60c116.667 16 223.334 24 320.001 24zM637.002 323.996l-0.000976562 -20c0 -13.333 28 -20 84 -20h376
c69.333 0 104 10.667 104 32c5.33301 13.333 8 37.333 8 72v404c0 40 -5.33301 60 -16 60h-28c-175.333 -48 -312.666 -133.333 -411.999 -256c-77.333 -117.333 -116 -208 -116 -272z" />
    <glyph glyph-name="braceleft" unicode="{" 
 />
    <glyph glyph-name="bar" unicode="|" 
 />
    <glyph glyph-name="braceright" unicode="}" 
 />
    <glyph glyph-name="asciitilde" unicode="~" 
 />
    <glyph glyph-name="exclamdown" unicode="&#xa1;" horiz-adv-x="672" 
 />
    <glyph glyph-name="cent" unicode="&#xa2;" horiz-adv-x="1139" 
 />
    <glyph glyph-name="sterling" unicode="&#xa3;" 
 />
    <glyph glyph-name="currency" unicode="&#xa4;" 
 />
    <glyph glyph-name="yen" unicode="&#xa5;" horiz-adv-x="1262" 
 />
    <glyph glyph-name="brokenbar" unicode="&#xa6;" 
 />
    <glyph glyph-name="section" unicode="&#xa7;" 
 />
    <glyph glyph-name="dieresis" unicode="&#xa8;" horiz-adv-x="1024" 
 />
    <glyph glyph-name="copyright" unicode="&#xa9;" horiz-adv-x="1674" 
 />
    <glyph glyph-name="ordfeminine" unicode="&#xaa;" horiz-adv-x="648" 
 />
    <glyph glyph-name="guillemotleft" unicode="&#xab;" horiz-adv-x="944" 
 />
    <glyph glyph-name="logicalnot" unicode="&#xac;" 
 />
    <glyph glyph-name="registered" unicode="&#xae;" horiz-adv-x="1674" 
 />
    <glyph glyph-name="macron" unicode="&#xaf;" horiz-adv-x="670" 
 />
    <glyph glyph-name="degree" unicode="&#xb0;" horiz-adv-x="674" 
 />
    <glyph glyph-name="plusminus" unicode="&#xb1;" 
 />
    <glyph glyph-name="uni00B2" unicode="&#xb2;" 
 />
    <glyph glyph-name="uni00B3" unicode="&#xb3;" 
 />
    <glyph glyph-name="acute" unicode="&#xb4;" horiz-adv-x="1024" 
 />
    <glyph glyph-name="mu" unicode="&#xb5;" horiz-adv-x="1180" 
 />
    <glyph glyph-name="paragraph" unicode="&#xb6;" horiz-adv-x="1024" 
 />
    <glyph glyph-name="periodcentered" unicode="&#xb7;" horiz-adv-x="508" 
 />
    <glyph glyph-name="periodcentered" unicode="&#x2219;" horiz-adv-x="508" 
 />
    <glyph glyph-name="cedilla" unicode="&#xb8;" horiz-adv-x="1024" 
 />
    <glyph glyph-name="uni00B9" unicode="&#xb9;" 
 />
    <glyph glyph-name="ordmasculine" unicode="&#xba;" horiz-adv-x="718" 
 />
    <glyph glyph-name="guillemotright" unicode="&#xbb;" horiz-adv-x="944" 
 />
    <glyph glyph-name="onequarter" unicode="&#xbc;" horiz-adv-x="1708" 
 />
    <glyph glyph-name="onehalf" unicode="&#xbd;" horiz-adv-x="1964" 
 />
    <glyph glyph-name="threequarters" unicode="&#xbe;" horiz-adv-x="1708" 
 />
    <glyph glyph-name="questiondown" unicode="&#xbf;" horiz-adv-x="748" 
 />
    <glyph glyph-name="Agrave" unicode="&#xc0;" horiz-adv-x="1540" 
 />
    <glyph glyph-name="Aacute" unicode="&#xc1;" horiz-adv-x="1540" 
 />
    <glyph glyph-name="Acircumflex" unicode="&#xc2;" horiz-adv-x="1540" 
 />
    <glyph glyph-name="Atilde" unicode="&#xc3;" horiz-adv-x="1540" 
 />
    <glyph glyph-name="Adieresis" unicode="&#xc4;" horiz-adv-x="1540" 
 />
    <glyph glyph-name="Aring" unicode="&#xc5;" horiz-adv-x="1540" 
 />
    <glyph glyph-name="AE" unicode="&#xc6;" horiz-adv-x="2118" 
 />
    <glyph glyph-name="Ccedilla" unicode="&#xc7;" horiz-adv-x="1399" 
 />
    <glyph glyph-name="Egrave" unicode="&#xc8;" horiz-adv-x="1151" 
 />
    <glyph glyph-name="Eacute" unicode="&#xc9;" horiz-adv-x="1151" 
 />
    <glyph glyph-name="Ecircumflex" unicode="&#xca;" horiz-adv-x="1151" 
 />
    <glyph glyph-name="Edieresis" unicode="&#xcb;" horiz-adv-x="1151" 
 />
    <glyph glyph-name="Igrave" unicode="&#xcc;" horiz-adv-x="657" 
 />
    <glyph glyph-name="Iacute" unicode="&#xcd;" horiz-adv-x="657" 
 />
    <glyph glyph-name="Icircumflex" unicode="&#xce;" horiz-adv-x="657" 
 />
    <glyph glyph-name="Idieresis" unicode="&#xcf;" horiz-adv-x="657" 
 />
    <glyph glyph-name="Eth" unicode="&#xd0;" horiz-adv-x="1518" 
 />
    <glyph glyph-name="Ntilde" unicode="&#xd1;" horiz-adv-x="1554" 
 />
    <glyph glyph-name="Ograve" unicode="&#xd2;" horiz-adv-x="1614" 
 />
    <glyph glyph-name="Oacute" unicode="&#xd3;" horiz-adv-x="1614" 
 />
    <glyph glyph-name="Ocircumflex" unicode="&#xd4;" horiz-adv-x="1614" 
 />
    <glyph glyph-name="Otilde" unicode="&#xd5;" horiz-adv-x="1614" 
 />
    <glyph glyph-name="Odieresis" unicode="&#xd6;" horiz-adv-x="1614" 
 />
    <glyph glyph-name="multiply" unicode="&#xd7;" 
 />
    <glyph glyph-name="Oslash" unicode="&#xd8;" horiz-adv-x="1614" 
 />
    <glyph glyph-name="Ugrave" unicode="&#xd9;" horiz-adv-x="1501" 
 />
    <glyph glyph-name="Uacute" unicode="&#xda;" horiz-adv-x="1501" 
 />
    <glyph glyph-name="Ucircumflex" unicode="&#xdb;" horiz-adv-x="1501" 
 />
    <glyph glyph-name="Udieresis" unicode="&#xdc;" horiz-adv-x="1501" 
 />
    <glyph glyph-name="Yacute" unicode="&#xdd;" horiz-adv-x="1233" 
 />
    <glyph glyph-name="Thorn" unicode="&#xde;" horiz-adv-x="1120" 
 />
    <glyph glyph-name="germandbls" unicode="&#xdf;" horiz-adv-x="1251" 
 />
    <glyph glyph-name="agrave" unicode="&#xe0;" horiz-adv-x="922" 
 />
    <glyph glyph-name="aacute" unicode="&#xe1;" horiz-adv-x="922" 
 />
    <glyph glyph-name="acircumflex" unicode="&#xe2;" horiz-adv-x="922" 
 />
    <glyph glyph-name="atilde" unicode="&#xe3;" horiz-adv-x="922" 
 />
    <glyph glyph-name="adieresis" unicode="&#xe4;" horiz-adv-x="922" 
 />
    <glyph glyph-name="aring" unicode="&#xe5;" horiz-adv-x="922" 
 />
    <glyph glyph-name="ae" unicode="&#xe6;" horiz-adv-x="1454" 
 />
    <glyph glyph-name="ccedilla" unicode="&#xe7;" horiz-adv-x="905" 
 />
    <glyph glyph-name="egrave" unicode="&#xe8;" horiz-adv-x="909" 
 />
    <glyph glyph-name="eacute" unicode="&#xe9;" horiz-adv-x="909" 
 />
    <glyph glyph-name="ecircumflex" unicode="&#xea;" horiz-adv-x="909" 
 />
    <glyph glyph-name="edieresis" unicode="&#xeb;" horiz-adv-x="909" 
 />
    <glyph glyph-name="igrave" unicode="&#xec;" horiz-adv-x="514" 
 />
    <glyph glyph-name="iacute" unicode="&#xed;" horiz-adv-x="514" 
 />
    <glyph glyph-name="icircumflex" unicode="&#xee;" horiz-adv-x="514" 
 />
    <glyph glyph-name="idieresis" unicode="&#xef;" horiz-adv-x="514" 
 />
    <glyph glyph-name="eth" unicode="&#xf0;" horiz-adv-x="1139" 
 />
    <glyph glyph-name="ntilde" unicode="&#xf1;" horiz-adv-x="1108" 
 />
    <glyph glyph-name="ograve" unicode="&#xf2;" horiz-adv-x="1010" 
 />
    <glyph glyph-name="oacute" unicode="&#xf3;" horiz-adv-x="1010" 
 />
    <glyph glyph-name="ocircumflex" unicode="&#xf4;" horiz-adv-x="1010" 
 />
    <glyph glyph-name="otilde" unicode="&#xf5;" horiz-adv-x="1010" 
 />
    <glyph glyph-name="odieresis" unicode="&#xf6;" horiz-adv-x="1010" 
 />
    <glyph glyph-name="divide" unicode="&#xf7;" 
 />
    <glyph glyph-name="oslash" unicode="&#xf8;" horiz-adv-x="1010" 
 />
    <glyph glyph-name="ugrave" unicode="&#xf9;" horiz-adv-x="1059" 
 />
    <glyph glyph-name="uacute" unicode="&#xfa;" horiz-adv-x="1059" 
 />
    <glyph glyph-name="ucircumflex" unicode="&#xfb;" horiz-adv-x="1059" 
 />
    <glyph glyph-name="udieresis" unicode="&#xfc;" horiz-adv-x="1059" 
 />
    <glyph glyph-name="yacute" unicode="&#xfd;" horiz-adv-x="868" 
 />
    <glyph glyph-name="thorn" unicode="&#xfe;" horiz-adv-x="1010" 
 />
    <glyph glyph-name="ydieresis" unicode="&#xff;" horiz-adv-x="868" 
 />
    <glyph glyph-name="dotlessi" unicode="&#x131;" horiz-adv-x="514" 
 />
    <glyph glyph-name="circumflex" unicode="&#x2c6;" horiz-adv-x="1024" 
 />
    <glyph glyph-name="caron" unicode="&#x2c7;" horiz-adv-x="1024" 
 />
    <glyph glyph-name="uni02C9" unicode="&#x2c9;" horiz-adv-x="1024" 
 />
    <glyph glyph-name="breve" unicode="&#x2d8;" horiz-adv-x="1024" 
 />
    <glyph glyph-name="dotaccent" unicode="&#x2d9;" horiz-adv-x="1024" 
 />
    <glyph glyph-name="ring" unicode="&#x2da;" horiz-adv-x="1024" 
 />
    <glyph glyph-name="ogonek" unicode="&#x2db;" horiz-adv-x="1024" 
 />
    <glyph glyph-name="tilde" unicode="&#x2dc;" horiz-adv-x="1024" 
 />
    <glyph glyph-name="hungarumlaut" unicode="&#x2dd;" horiz-adv-x="1024" 
 />
    <glyph glyph-name="endash" unicode="&#x2013;" horiz-adv-x="1108" 
 />
    <glyph glyph-name="emdash" unicode="&#x2014;" horiz-adv-x="2048" 
 />
    <glyph glyph-name="quoteleft" unicode="&#x2018;" horiz-adv-x="557" 
 />
    <glyph glyph-name="quoteright" unicode="&#x2019;" horiz-adv-x="557" 
 />
    <glyph glyph-name="quotesinglbase" unicode="&#x201a;" horiz-adv-x="557" 
 />
    <glyph glyph-name="quotedblleft" unicode="&#x201c;" horiz-adv-x="910" 
 />
    <glyph glyph-name="quotedblright" unicode="&#x201d;" horiz-adv-x="910" 
 />
    <glyph glyph-name="quotedblbase" unicode="&#x201e;" horiz-adv-x="910" 
 />
    <glyph glyph-name="dagger" unicode="&#x2020;" 
 />
    <glyph glyph-name="daggerdbl" unicode="&#x2021;" 
 />
    <glyph glyph-name="bullet" unicode="&#x2022;" horiz-adv-x="1024" 
 />
    <glyph glyph-name="ellipsis" unicode="&#x2026;" horiz-adv-x="2048" 
 />
    <glyph glyph-name="guilsinglleft" unicode="&#x2039;" horiz-adv-x="631" 
 />
    <glyph glyph-name="guilsinglright" unicode="&#x203a;" horiz-adv-x="631" 
 />
    <glyph glyph-name="fraction" unicode="&#x2044;" horiz-adv-x="342" 
 />
    <glyph glyph-name="fraction" unicode="&#x2215;" horiz-adv-x="342" 
 />
    <glyph glyph-name="franc" unicode="&#x20a3;" 
 />
    <glyph glyph-name="lira" unicode="&#x20a4;" 
 />
    <glyph glyph-name="peseta" unicode="&#x20a7;" horiz-adv-x="2028" 
 />
    <glyph glyph-name="Euro" unicode="&#x20ac;" 
 />
    <glyph glyph-name="afii61352" unicode="&#x2116;" horiz-adv-x="2271" 
 />
    <glyph glyph-name="trademark" unicode="&#x2122;" horiz-adv-x="1497" 
 />
    <glyph glyph-name="partialdiff" unicode="&#x2202;" 
 />
    <glyph glyph-name="Delta" unicode="&#x2206;" horiz-adv-x="1081" 
 />
    <glyph glyph-name="product" unicode="&#x220f;" horiz-adv-x="1515" 
 />
    <glyph glyph-name="summation" unicode="&#x2211;" horiz-adv-x="1206" 
 />
    <glyph glyph-name="minus" unicode="&#x2212;" 
 />
    <glyph glyph-name="radical" unicode="&#x221a;" 
 />
    <glyph glyph-name="infinity" unicode="&#x221e;" 
 />
    <glyph glyph-name="integral" unicode="&#x222b;" horiz-adv-x="665" 
 />
    <glyph glyph-name="approxequal" unicode="&#x2248;" 
 />
    <glyph glyph-name="lessequal" unicode="&#x2264;" 
 />
    <glyph glyph-name="greaterequal" unicode="&#x2265;" 
 />
    <glyph glyph-name="uniF001" unicode="&#xf001;" horiz-adv-x="1073" 
 />
    <glyph glyph-name="uniF001" unicode="&#xfb01;" horiz-adv-x="1073" 
 />
    <glyph glyph-name="uniF002" unicode="&#xf002;" horiz-adv-x="1081" 
 />
    <glyph glyph-name="uniF002" unicode="&#xfb02;" horiz-adv-x="1081" 
 />
    <glyph glyph-name="NULL" horiz-adv-x="0" 
 />
    <glyph glyph-name="nonmarkingreturn" horiz-adv-x="508" 
 />
  </font>
</defs>
</svg>
